<svg width="803" height="411" viewBox="0 0 803 411" fill="none" xmlns="http://www.w3.org/2000/svg">
<path d="M92.709 70.0279C92.459 68.6079 91.669 67.5079 89.699 66.2179C87.729 64.9179 86.339 63.8679 82.849 63.5579C79.369 63.2579 76.799 63.4479 72.279 64.6779C67.759 65.9079 65.429 66.6979 60.249 69.7179C55.069 72.7279 52.079 74.5379 46.359 79.7479C40.639 84.9579 37.299 88.3079 31.639 95.7479C25.989 103.188 22.809 107.748 18.079 116.948C13.349 126.148 10.949 131.698 7.98899 141.738C5.01899 151.778 3.799 157.678 3.249 167.168C2.699 176.668 2.939 181.578 5.219 189.218C7.499 196.858 9.56899 200.468 14.649 205.348C19.729 210.228 23.429 212.078 30.629 213.618C37.819 215.158 42.319 214.808 50.629 213.058C58.929 211.298 63.809 209.418 72.169 204.838C80.519 200.268 84.989 196.848 92.399 190.178C99.809 183.508 103.409 179.108 109.229 171.478C115.059 163.838 117.709 159.498 121.519 152.018C125.339 144.528 126.719 140.528 128.309 134.068C129.909 127.598 130.139 124.558 129.489 119.688C128.839 114.818 127.939 112.338 125.069 109.718C122.209 107.108 119.259 106.448 115.159 106.608C111.059 106.768 108.459 107.998 104.559 110.498C100.659 112.998 98.479 115.188 95.659 119.098C92.849 123.008 91.439 125.568 90.469 130.048C89.509 134.518 89.409 137.438 90.819 141.478C92.219 145.508 93.839 147.728 97.499 150.218C101.169 152.718 103.989 153.378 109.149 153.938C114.309 154.488 117.419 154.088 123.299 152.998C129.179 151.898 132.579 150.538 138.549 148.448C144.519 146.358 148.129 144.588 153.169 142.538C158.209 140.488 160.959 139.448 163.739 138.198C166.519 136.948 166.679 135.588 167.049 136.288C167.429 136.978 167.109 137.608 165.619 141.658C164.119 145.718 162.879 149.148 159.579 156.568C156.289 163.988 153.509 168.798 149.139 178.758C144.769 188.728 142.039 194.768 137.729 206.398C133.419 218.038 131.109 224.458 127.599 236.928C124.089 249.398 122.419 256.068 120.169 268.768C117.929 281.478 117.149 288.198 116.389 300.458C115.629 312.728 115.749 319.028 116.359 330.098C116.979 341.168 118.039 346.448 119.469 355.818C120.899 365.188 122.229 369.538 123.509 376.948C124.799 384.358 125.409 387.908 125.889 392.858C126.359 397.818 126.029 399.668 125.899 401.708C125.769 403.758 126.399 403.638 125.229 403.088C124.059 402.538 122.969 401.768 120.069 398.968C117.169 396.168 114.649 394.178 110.739 389.078C106.829 383.978 104.329 380.238 100.519 373.488C96.709 366.728 94.439 362.628 91.679 355.288C88.909 347.958 87.239 344.308 86.689 336.788C86.129 329.268 87.209 324.828 88.899 317.708C90.589 310.578 92.579 306.768 95.139 301.148C97.689 295.538 100.969 292.288 101.669 289.638C102.359 286.988 100.569 285.898 98.619 287.908C96.669 289.928 94.539 293.898 91.929 299.698C89.319 305.508 87.259 309.468 85.569 316.938C83.879 324.398 82.889 329.128 83.479 337.028C84.069 344.928 85.789 348.788 88.519 356.448C91.259 364.108 93.459 368.228 97.139 375.318C100.819 382.398 103.089 386.288 106.909 391.848C110.739 397.418 112.689 400.038 116.249 403.138C119.819 406.248 121.849 407.448 124.719 407.378C127.589 407.308 129.569 405.798 130.599 402.788C131.629 399.788 130.689 397.638 129.869 392.358C129.049 387.068 128.079 383.758 126.489 376.368C124.909 368.978 123.519 364.698 121.939 355.418C120.349 346.138 119.269 340.938 118.569 329.968C117.869 318.998 117.719 312.758 118.439 300.588C119.149 288.418 119.909 281.738 122.139 269.118C124.369 256.498 126.039 249.878 129.589 237.488C133.129 225.108 135.459 218.728 139.879 207.218C144.309 195.698 147.099 189.748 151.719 179.938C156.339 170.128 159.279 165.518 162.959 158.158C166.649 150.798 168.799 147.898 170.169 143.138C171.529 138.368 171.389 136.378 169.779 134.318C168.159 132.258 165.829 132.108 162.109 132.828C158.389 133.538 156.209 135.648 151.189 137.898C146.169 140.158 142.749 142.008 136.999 144.078C131.249 146.148 127.899 147.328 122.449 148.248C117.009 149.158 114.099 149.228 109.759 148.668C105.419 148.118 103.399 147.278 100.749 145.468C98.099 143.648 97.369 142.398 96.509 139.588C95.649 136.778 95.609 134.788 96.449 131.418C97.289 128.058 98.389 125.908 100.709 122.778C103.019 119.648 105.039 117.808 108.029 115.768C111.019 113.718 112.939 112.978 115.669 112.558C118.389 112.138 119.729 112.098 121.649 113.648C123.559 115.208 124.589 116.388 125.249 120.318C125.899 124.238 126.189 127.218 124.919 133.288C123.639 139.358 122.439 143.378 118.859 150.688C115.289 157.988 112.709 162.328 107.049 169.818C101.389 177.308 97.829 181.648 90.579 188.148C83.329 194.648 78.909 197.938 70.799 202.318C62.679 206.698 57.899 208.418 49.999 210.058C42.089 211.698 37.929 211.908 31.279 210.528C24.639 209.138 21.429 207.558 16.769 203.128C12.109 198.708 10.139 195.558 7.969 188.388C5.799 181.228 5.41901 176.508 5.91901 167.318C6.41901 158.138 7.56901 152.298 10.479 142.478C13.389 132.648 15.759 127.168 20.479 118.198C25.199 109.228 28.399 104.758 34.059 97.6279C39.719 90.4879 43.099 87.2679 48.779 82.5279C54.459 77.7779 57.509 76.2079 62.449 73.8979C67.389 71.5879 69.599 71.3279 73.469 70.9879C77.329 70.6379 79.089 71.6979 81.769 72.1679C84.439 72.6379 84.999 73.1079 86.829 73.3379C88.659 73.5779 89.749 74.0079 90.929 73.3379C92.099 72.6779 92.949 71.4579 92.709 70.0279Z" fill="white" stroke="white"/>
<path d="M213.509 251.118C212.889 249.838 211.709 249.528 210.979 249.808C210.239 250.088 209.969 251.368 209.829 252.538C209.679 253.708 209.819 254.558 210.239 255.658C210.659 256.748 211.179 257.898 211.939 257.998C212.709 258.108 213.749 257.568 214.059 256.188C214.369 254.808 214.119 252.388 213.509 251.118Z" fill="white" stroke="white"/>
<path d="M355.709 125.768C356.699 124.468 357.169 122.618 356.839 119.978C356.509 117.338 355.859 115.558 354.039 112.578C352.209 109.598 350.809 107.428 347.709 105.078C344.619 102.728 342.549 101.778 338.559 100.818C334.579 99.868 332.159 99.718 327.769 100.308C323.379 100.898 320.969 101.728 316.609 103.758C312.249 105.788 309.719 107.308 305.959 110.468C302.199 113.618 300.169 115.498 297.809 119.538C295.439 123.568 294.499 126.158 294.149 130.628C293.789 135.108 294.259 137.668 296.039 141.908C297.829 146.138 299.509 148.178 303.089 151.818C306.669 155.458 309.309 156.948 313.929 160.128C318.549 163.308 321.379 164.758 326.209 167.708C331.039 170.668 333.729 171.998 338.079 174.898C342.429 177.788 344.789 179.098 347.949 182.168C351.109 185.238 352.359 186.768 353.889 190.248C355.429 193.728 355.859 195.528 355.609 199.568C355.359 203.608 354.769 205.948 352.659 210.458C350.549 214.958 348.749 217.478 345.079 222.088C341.409 226.688 338.889 229.248 334.299 233.498C329.709 237.738 326.709 240.138 322.129 243.288C317.549 246.438 314.869 247.568 311.409 249.248C307.939 250.928 306.329 251.288 304.799 251.688C303.269 252.078 303.689 252.648 303.759 251.228C303.839 249.798 303.919 248.458 305.179 244.578C306.429 240.688 307.149 237.578 310.039 231.788C312.929 225.998 315.189 222.258 319.629 215.648C324.069 209.028 327.009 204.998 332.229 198.728C337.439 192.448 340.349 189.148 345.709 184.278C351.069 179.408 354.329 177.028 359.029 174.378C363.729 171.718 365.989 171.138 369.209 170.998C372.419 170.868 373.109 171.558 375.109 173.718C377.109 175.878 378.029 177.588 379.209 181.798C380.389 186.018 380.719 189.318 380.999 194.788C381.269 200.268 380.869 203.788 380.579 209.178C380.279 214.558 379.179 217.818 379.509 221.718C379.839 225.608 380.539 227.668 382.229 228.668C383.909 229.658 385.999 229.478 387.949 226.678C389.909 223.868 390.039 220.778 392.009 214.628C393.969 208.488 395.249 203.668 397.789 195.968C400.319 188.258 401.999 182.878 404.689 176.108C407.369 169.348 409.179 165.718 411.209 162.128C413.249 158.538 413.479 157.898 414.869 158.168C416.269 158.448 416.609 159.608 418.189 163.518C419.769 167.428 420.919 171.268 422.779 177.708C424.629 184.158 425.549 188.768 427.459 195.728C429.379 202.688 430.469 206.718 432.349 212.518C434.239 218.328 434.649 221.228 436.889 224.748C439.119 228.268 440.639 229.868 443.529 230.138C446.429 230.398 448.649 229.288 451.349 226.078C454.039 222.878 454.709 219.688 456.999 214.098C459.289 208.498 460.399 204.488 462.789 198.098C465.179 191.698 466.739 187.378 468.949 182.128C471.159 176.878 472.899 174.208 473.839 171.838C474.789 169.468 473.459 169.018 473.669 170.268C473.869 171.518 474.189 173.608 474.869 178.078C475.549 182.548 475.949 186.348 477.079 192.608C478.199 198.858 478.669 203.248 480.489 209.338C482.309 215.438 483.389 218.678 486.179 223.088C488.979 227.508 490.699 229.728 494.469 231.438C498.229 233.148 500.699 233.068 504.999 231.648C509.309 230.218 511.559 228.138 515.989 224.318C520.429 220.488 522.899 217.658 527.179 212.528C531.459 207.398 533.659 203.998 537.389 198.688C541.129 193.378 543.059 190.278 545.839 185.978C548.629 181.678 550.559 179.938 551.329 177.188C552.089 174.428 551.169 172.948 549.669 172.208C548.169 171.458 545.879 171.508 543.829 173.458C541.779 175.408 540.669 177.868 539.409 181.938C538.159 186.018 537.629 189.078 537.569 193.838C537.509 198.608 537.369 201.698 539.109 205.778C540.839 209.858 542.529 212.448 546.259 214.258C549.979 216.068 552.989 216.218 557.719 214.818C562.459 213.428 565.039 211.478 569.949 207.278C574.859 203.078 577.719 199.778 582.279 193.808C586.829 187.838 589.259 183.948 592.709 177.448C596.169 170.938 597.779 167.108 599.539 161.288C601.309 155.468 602.049 152.628 601.549 148.338C601.059 144.048 599.889 141.618 597.079 139.848C594.279 138.078 591.489 137.968 587.529 139.498C583.569 141.028 581.279 143.018 577.259 147.508C573.239 151.998 570.939 155.218 567.429 161.948C563.919 168.678 562.009 173.138 559.709 181.158C557.409 189.178 556.439 193.818 555.919 202.068C555.399 210.308 555.719 214.588 557.109 222.368C558.499 230.158 559.819 234.338 562.859 240.998C565.909 247.648 568.039 250.888 572.339 255.638C576.649 260.388 579.489 262.158 584.389 264.738C589.289 267.328 591.989 268.188 596.849 268.548C601.709 268.918 604.499 268.498 608.709 266.558C612.909 264.618 615.059 262.778 617.889 258.858C620.719 254.928 621.609 252.248 622.839 246.938C624.079 241.618 624.429 238.378 624.079 232.278C623.729 226.188 622.939 222.508 621.109 216.458C619.279 210.408 617.769 207.188 614.939 202.018C612.109 196.848 610.249 194.398 606.939 190.608C603.629 186.818 601.809 184.968 598.399 183.058C594.979 181.138 592.829 180.578 589.859 181.038C586.879 181.498 584.859 182.768 583.539 185.368C582.209 187.968 582.159 190.148 583.229 194.028C584.289 197.908 585.909 200.028 588.849 204.768C591.789 209.508 593.839 212.288 597.939 217.718C602.039 223.148 604.819 226.238 609.349 231.918C613.889 237.588 616.439 240.648 620.599 246.078C624.759 251.508 626.889 254.278 630.149 259.048C633.399 263.818 635.049 265.978 636.869 269.928C638.699 273.878 639.239 275.458 639.259 278.808C639.279 282.158 638.829 283.428 636.979 286.678C635.129 289.928 633.559 291.648 630.019 295.038C626.479 298.428 624.139 300.398 619.279 303.628C614.409 306.858 611.209 308.678 605.699 311.198C600.179 313.718 596.589 314.908 591.699 316.238C586.799 317.568 584.279 317.998 581.219 317.868C578.169 317.738 577.559 317.648 576.439 315.568C575.329 313.488 574.609 312.238 575.649 307.468C576.689 302.698 577.999 299.288 581.629 291.718C585.259 284.148 588.079 279.438 593.819 269.628C599.559 259.808 603.239 254.218 610.309 242.638C617.389 231.058 621.559 224.728 629.199 211.718C636.829 198.708 641.019 191.628 648.499 177.578C655.989 163.538 659.849 155.958 666.599 141.508C673.359 127.058 676.729 119.208 682.279 105.328C687.839 91.448 690.419 84.428 694.389 72.108C698.359 59.788 699.969 53.728 702.119 43.718C704.269 33.708 704.879 29.208 705.139 22.068C705.399 14.928 705.349 11.838 703.399 8.02797C701.449 4.22797 699.039 2.66797 695.379 3.05797C691.719 3.44797 689.179 5.21796 685.099 9.98796C681.029 14.758 678.769 18.228 674.999 26.928C671.239 35.618 669.259 41.588 666.289 53.468C663.309 65.338 661.859 72.858 660.119 86.318C658.389 99.778 657.929 107.568 657.619 120.768C657.299 133.968 657.589 141.028 658.529 152.328C659.469 163.618 660.189 169.068 662.309 177.258C664.429 185.438 665.719 188.638 669.119 193.238C672.519 197.848 674.809 199.288 679.299 200.288C683.789 201.278 686.589 200.388 691.569 198.198C696.549 196.018 699.309 193.418 704.199 189.368C709.089 185.308 711.679 182.178 715.999 177.918C720.329 173.648 722.719 170.818 725.809 168.048C728.899 165.278 730.129 164.538 731.449 164.078C732.769 163.608 731.839 163.768 732.399 165.718C732.969 167.668 733.239 169.738 734.259 173.828C735.279 177.908 735.799 181.218 737.499 186.148C739.199 191.068 739.909 194.268 742.779 198.448C745.639 202.638 747.489 204.848 751.809 207.068C756.129 209.298 758.989 209.908 764.389 209.568C769.779 209.218 773.419 207.648 778.769 205.348C784.129 203.048 787.029 200.908 791.159 198.078C795.289 195.258 798.199 193.178 799.419 191.218C800.639 189.258 799.449 187.738 797.259 188.278C795.069 188.808 792.569 191.418 788.459 193.898C784.359 196.378 781.629 198.528 776.749 200.678C771.859 202.828 768.539 204.268 764.019 204.658C759.509 205.048 757.489 204.458 754.169 202.628C750.839 200.798 749.539 199.178 747.399 195.508C745.249 191.828 744.779 188.928 743.429 184.258C742.079 179.588 741.829 176.438 740.649 172.148C739.479 167.858 739.539 165.338 737.549 162.798C735.559 160.248 733.749 159.188 730.699 159.428C727.659 159.658 725.929 160.958 722.299 163.978C718.669 166.998 716.789 170.148 712.569 174.518C708.359 178.888 705.789 181.898 701.219 185.828C696.639 189.758 693.929 192.058 689.689 194.168C685.459 196.288 683.649 196.978 680.059 196.408C676.459 195.828 674.769 195.248 671.729 191.278C668.679 187.318 667.039 184.398 664.839 176.568C662.639 168.738 661.769 163.278 660.739 152.128C659.699 140.978 659.369 133.928 659.669 120.818C659.969 107.708 660.439 99.948 662.239 86.598C664.039 73.248 665.559 65.758 668.689 54.088C671.819 42.408 674.009 36.528 677.899 28.228C681.789 19.928 684.489 16.768 688.119 12.588C691.759 8.40797 693.709 7.90797 696.079 7.32797C698.449 6.73797 698.749 6.70797 699.969 9.64797C701.199 12.588 702.229 15.288 702.219 22.018C702.209 28.738 701.849 33.358 699.919 43.268C697.999 53.178 696.439 59.258 692.599 71.538C688.759 83.828 686.199 90.848 680.709 104.698C675.209 118.548 671.859 126.388 665.119 140.808C658.389 155.228 654.529 162.798 647.029 176.798C639.539 190.798 635.339 197.858 627.639 210.798C619.939 223.748 615.749 230.038 608.539 241.538C601.329 253.038 597.589 258.558 591.599 268.288C585.609 278.018 582.629 282.548 578.599 290.188C574.559 297.828 572.729 300.938 571.409 306.498C570.099 312.068 570.149 314.718 572.019 318.018C573.879 321.328 576.519 322.448 580.719 323.028C584.919 323.598 587.619 322.428 592.999 320.888C598.369 319.348 601.829 317.998 607.599 315.328C613.369 312.668 616.659 310.878 621.829 307.558C627.009 304.238 629.539 302.388 633.489 298.728C637.449 295.068 639.439 293.248 641.609 289.248C643.789 285.248 644.489 282.988 644.379 278.728C644.269 274.458 643.229 272.338 641.059 267.928C638.879 263.518 636.989 261.528 633.509 256.688C630.029 251.858 627.859 249.178 623.649 243.738C619.429 238.288 616.859 235.218 612.439 229.488C608.029 223.768 605.319 220.598 601.559 215.108C597.809 209.618 596.009 206.658 593.659 202.048C591.299 197.428 590.799 194.978 589.789 192.038C588.769 189.088 588.499 188.358 588.579 187.298C588.649 186.238 588.809 186.508 590.169 186.728C591.539 186.948 592.789 186.938 595.399 188.398C598.019 189.858 600.119 190.858 603.229 194.028C606.349 197.198 608.259 199.498 610.979 204.238C613.699 208.978 615.149 212.088 616.849 217.748C618.549 223.398 619.219 226.898 619.459 232.508C619.699 238.118 619.189 241.118 618.029 245.778C616.869 250.438 615.949 252.578 613.639 255.798C611.329 259.008 609.789 260.258 606.489 261.848C603.189 263.438 601.179 263.938 597.139 263.758C593.109 263.578 590.719 263.088 586.319 260.948C581.909 258.808 579.189 257.348 575.119 253.068C571.039 248.788 568.929 245.808 565.959 239.548C562.989 233.298 561.639 229.258 560.269 221.798C558.899 214.348 558.569 210.208 559.119 202.278C559.669 194.348 560.659 189.828 563.029 182.148C565.399 174.468 567.409 170.138 570.979 163.878C574.539 157.618 577.089 154.688 580.839 150.838C584.599 146.998 587.019 146.008 589.749 144.648C592.489 143.278 593.119 143.188 594.499 144.018C595.869 144.848 596.429 145.568 596.629 148.788C596.819 152.008 596.949 154.748 595.479 160.108C593.999 165.478 592.529 169.378 589.249 175.618C585.969 181.858 583.509 185.688 579.069 191.318C574.629 196.958 571.599 200.078 567.029 203.788C562.469 207.488 559.889 208.788 556.259 209.848C552.639 210.908 551.149 210.318 548.919 209.068C546.689 207.818 545.939 206.558 545.119 203.598C544.299 200.638 544.359 198.108 544.809 194.268C545.259 190.438 546.289 187.828 547.359 184.408C548.439 180.988 549.789 179.428 550.189 177.158C550.589 174.898 550.229 173.598 549.369 173.078C548.509 172.548 547.459 172.478 545.889 174.538C544.309 176.588 543.929 179.028 541.499 183.358C539.069 187.678 537.299 190.918 533.749 196.168C530.189 201.418 527.909 204.718 523.729 209.608C519.539 214.498 516.919 217.168 512.839 220.618C508.749 224.068 506.559 225.598 503.299 226.858C500.049 228.118 499.189 228.158 496.579 226.898C493.969 225.638 492.569 224.328 490.269 220.558C487.969 216.778 486.679 213.788 485.099 208.018C483.519 202.258 483.309 197.928 482.349 191.728C481.399 185.518 481.489 181.738 480.319 176.978C479.159 172.218 478.689 169.568 476.519 167.928C474.349 166.288 471.919 166.328 469.479 168.788C467.039 171.248 466.559 174.698 464.329 180.218C462.089 185.748 460.739 190.038 458.319 196.408C455.889 202.778 454.509 206.788 452.199 212.068C449.889 217.338 448.429 219.958 446.769 222.778C445.109 225.588 444.999 226.248 443.909 226.148C442.809 226.038 442.759 225.258 441.279 222.248C439.809 219.248 438.479 216.638 436.549 211.108C434.619 205.578 433.499 201.528 431.639 194.588C429.789 187.658 429.109 183.068 427.279 176.448C425.449 169.818 424.879 165.828 422.499 161.458C420.119 157.078 418.359 154.908 415.379 154.568C412.389 154.228 410.469 155.758 407.579 159.758C404.679 163.768 403.659 167.638 400.889 174.598C398.119 181.568 396.419 186.888 393.709 194.568C390.999 202.258 389.509 207.078 387.309 213.018C385.119 218.948 383.419 221.378 382.729 224.258C382.049 227.138 383.319 227.918 383.899 227.418C384.489 226.928 385.249 225.398 385.669 221.788C386.089 218.178 385.879 214.838 385.989 209.378C386.099 203.918 386.559 200.318 386.219 194.508C385.879 188.688 385.789 185.188 384.279 180.298C382.769 175.418 381.719 172.858 378.669 170.078C375.609 167.298 373.349 166.218 369.019 166.388C364.689 166.558 362.169 167.878 357.029 170.938C351.889 173.998 348.819 176.578 343.329 181.698C337.849 186.818 334.969 190.178 329.609 196.538C324.249 202.898 321.259 206.878 316.529 213.488C311.789 220.098 309.309 223.718 305.929 229.578C302.559 235.448 301.079 238.268 299.659 242.828C298.229 247.378 297.789 249.558 298.819 252.348C299.859 255.148 301.839 256.438 304.839 256.798C307.829 257.158 309.799 256.108 313.789 254.158C317.789 252.208 320.129 250.548 324.829 247.058C329.519 243.568 332.529 241.128 337.279 236.698C342.029 232.268 344.629 229.748 348.579 224.908C352.529 220.078 354.609 217.548 357.029 212.538C359.459 207.538 360.389 204.758 360.699 199.888C361.019 195.018 360.469 192.448 358.609 188.188C356.749 183.928 354.989 182.048 351.409 178.598C347.839 175.138 345.259 173.888 340.719 170.898C336.179 167.908 333.499 166.618 328.709 163.648C323.929 160.678 321.149 159.148 316.779 156.048C312.409 152.948 309.999 151.408 306.879 148.148C303.759 144.888 302.589 143.158 301.179 139.758C299.769 136.348 299.519 134.558 299.829 131.108C300.139 127.648 300.779 125.708 302.739 122.478C304.709 119.248 306.389 117.588 309.659 114.948C312.929 112.298 315.339 110.918 319.109 109.258C322.869 107.588 324.979 106.958 328.499 106.638C332.009 106.318 333.889 106.718 336.669 107.648C339.449 108.568 340.509 109.318 342.389 111.248C344.269 113.188 344.769 115.058 346.079 117.328C347.389 119.598 347.789 120.778 348.949 122.608C350.099 124.438 350.509 125.848 351.859 126.478C353.209 127.108 354.709 127.068 355.709 125.768Z" fill="white" stroke="white"/>
</svg>
