<svg width="588" height="251" viewBox="0 0 588 251" fill="none" xmlns="http://www.w3.org/2000/svg">
<path d="M120.166 40.729C121.336 39.569 122.466 37.249 123.556 34.149C124.646 31.059 125.156 28.839 125.626 25.239C126.106 21.629 126.786 19.179 125.946 16.139C125.106 13.099 123.926 11.549 121.426 10.029C118.926 8.49897 117.116 8.14898 113.426 8.50898C109.746 8.86898 107.826 9.51896 102.986 11.829C98.146 14.139 95.126 15.689 89.226 20.049C83.336 24.409 79.816 27.329 73.496 33.629C67.166 39.939 63.536 43.849 57.606 51.579C51.666 59.319 48.416 64.099 43.816 72.309C39.206 80.529 37.106 85.119 34.576 92.669C32.036 100.219 31.286 104.069 31.156 110.069C31.016 116.079 31.536 118.949 33.906 122.679C36.276 126.419 38.536 127.709 43.006 128.739C47.476 129.769 50.526 129.369 56.256 127.819C61.986 126.269 65.336 124.579 71.656 120.989C77.966 117.409 81.676 114.679 87.836 109.869C93.996 105.059 97.306 102.079 102.446 96.939C107.586 91.799 109.956 88.679 113.526 84.149C117.096 79.619 118.916 77.409 120.296 74.279C121.676 71.149 121.396 69.579 120.416 68.519C119.436 67.459 117.486 67.369 115.396 68.979C113.306 70.579 112.026 72.649 109.976 76.549C107.926 80.439 106.806 83.279 105.126 88.469C103.436 93.669 102.526 96.869 101.556 102.519C100.576 108.179 100.226 111.179 100.266 116.739C100.316 122.289 100.626 125.119 101.766 130.309C102.896 135.509 103.786 138.059 105.946 142.699C108.106 147.329 109.536 149.579 112.556 153.479C115.566 157.369 117.486 159.079 121.016 162.169C124.546 165.269 126.896 166.459 130.186 168.949C133.486 171.439 135.026 172.719 137.486 174.619C139.946 176.519 141.456 177.149 142.486 178.449C143.516 179.749 143.826 179.439 142.626 181.109C141.436 182.789 140.516 184.089 136.496 186.829C132.476 189.559 129.296 191.309 122.526 194.799C115.756 198.279 111.186 200.229 102.646 204.239C94.116 208.259 88.926 210.809 79.856 214.869C70.796 218.929 65.856 221.109 57.336 224.529C48.816 227.949 44.406 229.669 37.256 231.969C30.116 234.269 26.886 235.129 21.606 236.029C16.316 236.919 13.916 236.739 10.846 236.449C7.77602 236.159 6.91601 236.099 6.26601 234.569C5.61601 233.039 6.036 232.089 7.606 228.789C9.176 225.499 10.196 223.019 14.116 218.099C18.046 213.189 20.946 210.169 27.236 204.219C33.526 198.279 37.406 194.759 45.566 188.379C53.726 181.989 58.336 178.669 68.026 172.279C77.706 165.889 83.246 162.719 93.996 156.429C104.746 150.129 110.666 146.849 121.756 140.809C132.836 134.759 138.456 131.799 149.426 126.219C160.396 120.629 166.066 118.019 176.606 112.869C187.156 107.729 192.456 105.069 202.146 100.499C211.836 95.939 216.566 94.019 225.036 90.059C233.516 86.089 237.766 84.069 244.536 80.679C251.316 77.289 254.506 75.769 258.926 73.109C263.346 70.439 265.196 69.679 266.646 67.369C268.096 65.069 267.886 63.319 266.166 61.589C264.446 59.849 262.276 59.099 258.036 58.679C253.806 58.259 250.826 58.599 244.996 59.499C239.176 60.409 235.606 61.179 228.916 63.189C222.236 65.209 218.186 66.669 211.556 69.569C204.926 72.459 201.266 74.339 195.786 77.659C190.316 80.989 187.746 82.799 184.176 86.209C180.596 89.609 179.206 91.269 177.916 94.689C176.626 98.109 176.576 100.029 177.736 103.309C178.896 106.599 180.496 108.319 183.716 111.109C186.936 113.889 189.296 115.099 193.846 117.249C198.396 119.399 201.446 120.169 206.456 121.859C211.456 123.549 214.356 124.219 218.866 125.689C223.386 127.159 225.596 127.919 229.026 129.199C232.446 130.479 234.066 131.269 235.976 132.089C237.886 132.919 238.616 132.779 238.556 133.309C238.496 133.839 237.896 133.539 235.676 134.729C233.456 135.919 231.626 137.219 227.436 139.269C223.236 141.319 220.416 142.619 214.696 144.979C208.976 147.339 205.226 148.609 198.836 151.069C192.446 153.529 188.506 155.079 182.736 157.289C176.966 159.499 174.346 160.509 169.966 162.109C165.596 163.699 162.556 164.239 160.856 165.249C159.146 166.259 159.436 167.269 161.436 167.149C163.436 167.029 166.396 166.119 170.846 164.649C175.306 163.189 177.916 162.029 183.706 159.819C189.496 157.609 193.366 155.989 199.796 153.599C206.216 151.209 209.976 150.019 215.826 147.879C221.676 145.729 224.536 144.709 229.046 142.869C233.546 141.039 235.976 140.619 238.356 138.709C240.736 136.799 241.006 135.329 240.946 133.309C240.886 131.289 240.166 130.179 238.046 128.609C235.926 127.039 233.986 126.709 230.356 125.459C226.726 124.219 224.456 123.759 219.896 122.389C215.336 121.029 212.446 120.329 207.546 118.649C202.646 116.969 199.676 116.079 195.416 113.989C191.146 111.899 189.046 110.599 186.206 108.199C183.376 105.789 182.286 104.439 181.256 101.969C180.226 99.499 180.086 98.589 181.066 95.849C182.056 93.109 182.976 91.479 186.186 88.279C189.406 85.069 191.856 83.129 197.126 79.839C202.396 76.549 206.026 74.639 212.536 71.819C219.046 69.009 223.076 67.579 229.666 65.759C236.246 63.949 239.826 63.409 245.436 62.769C251.056 62.129 253.926 62.389 257.746 62.579C261.556 62.769 263.176 63.099 264.516 63.719C265.846 64.349 265.816 64.249 264.426 65.689C263.036 67.129 261.736 68.279 257.576 70.929C253.426 73.589 250.296 75.419 243.656 78.959C237.006 82.499 232.776 84.559 224.356 88.609C215.936 92.669 211.206 94.599 201.536 99.219C191.876 103.829 186.566 106.509 176.026 111.689C165.486 116.859 159.816 119.479 148.846 125.079C137.866 130.679 132.246 133.639 121.146 139.679C110.036 145.719 104.106 148.999 93.326 155.279C82.546 161.549 76.986 164.709 67.226 171.059C57.466 177.409 52.816 180.719 44.536 187.039C36.246 193.349 32.306 196.799 25.796 202.659C19.286 208.519 16.246 211.379 11.986 216.329C7.72601 221.279 6.14601 223.509 4.48601 227.399C2.83601 231.279 2.526 233.329 3.726 235.749C4.916 238.179 6.80602 238.999 10.466 239.529C14.136 240.069 16.576 239.549 22.056 238.409C27.536 237.279 30.686 236.289 37.876 233.839C45.066 231.389 49.456 229.649 57.996 226.179C66.536 222.709 71.486 220.509 80.576 216.489C89.676 212.459 94.876 209.939 103.486 206.059C112.096 202.169 116.676 200.349 123.636 197.049C130.606 193.759 133.856 192.369 138.296 189.579C142.736 186.789 144.366 185.689 145.826 183.099C147.276 180.509 146.706 179.039 145.586 176.649C144.466 174.259 142.876 173.309 140.236 171.159C137.596 169.009 135.786 168.209 132.376 165.899C128.976 163.579 126.676 162.479 123.216 159.599C119.746 156.729 117.946 155.159 115.036 151.519C112.136 147.889 110.766 145.769 108.676 141.409C106.596 137.039 105.716 134.619 104.606 129.679C103.506 124.749 103.176 122.039 103.176 116.719C103.166 111.399 103.506 108.489 104.586 103.089C105.666 97.679 106.716 94.579 108.576 89.689C110.436 84.799 111.926 82.239 113.886 78.629C115.836 75.029 117.226 73.579 118.346 71.669C119.456 69.759 119.676 68.889 119.456 69.089C119.226 69.299 118.836 70.009 117.216 72.689C115.606 75.379 114.656 77.999 111.376 82.529C108.086 87.049 105.786 90.199 100.796 95.309C95.806 100.419 92.496 103.359 86.426 108.059C80.356 112.759 76.616 115.399 70.436 118.819C64.256 122.239 60.906 123.729 55.546 125.169C50.176 126.599 47.486 126.759 43.606 125.979C39.716 125.199 38.156 124.449 36.106 121.269C34.066 118.099 33.336 115.709 33.396 110.109C33.456 104.509 34.016 100.659 36.406 93.269C38.806 85.889 40.846 81.299 45.366 73.179C49.896 65.069 53.126 60.309 59.036 52.689C64.946 45.069 68.596 41.209 74.926 35.089C81.256 28.969 84.806 26.139 90.686 22.089C96.566 18.039 99.686 16.719 104.316 14.819C108.936 12.929 110.816 12.899 113.826 12.619C116.826 12.349 117.896 12.529 119.326 13.429C120.766 14.339 120.776 14.919 121.006 17.139C121.226 19.359 120.906 21.379 120.466 24.529C120.016 27.679 119.326 29.809 118.776 32.889C118.226 35.969 117.446 38.359 117.726 39.929C118.006 41.499 119.006 41.879 120.166 40.729Z" fill="white" stroke="white"/>
<path d="M262.576 126.939C261.466 127.489 260.576 128.669 259.216 130.699C257.846 132.719 257.146 134.209 255.726 137.069C254.316 139.939 253.386 141.969 252.146 145.029C250.896 148.079 250.016 149.619 249.506 152.359C248.996 155.109 248.956 156.999 249.596 158.749C250.236 160.489 251.876 160.809 252.716 161.069C253.556 161.329 253.736 160.589 253.786 160.029C253.846 159.469 252.746 159.499 252.976 158.279C253.206 157.049 254.046 156.119 254.946 153.909C255.846 151.699 256.256 150.109 257.476 147.249C258.706 144.379 259.756 142.439 261.046 139.589C262.336 136.739 263.206 135.309 263.936 132.979C264.676 130.659 265.006 129.169 264.726 127.959C264.456 126.749 263.676 126.389 262.576 126.939Z" fill="white" stroke="white"/>
<path d="M297.146 73.589C297.956 73.079 298.536 72.469 298.266 72.159C297.996 71.849 296.556 71.929 295.796 72.039C295.046 72.159 294.516 72.479 294.466 72.739C294.426 72.999 295.566 73.169 295.566 73.339C295.566 73.509 295.096 73.349 294.486 73.589C293.866 73.829 292.536 74.309 292.486 74.529C292.446 74.759 293.306 74.909 294.246 74.729C295.176 74.539 296.346 74.099 297.146 73.589Z" fill="white" stroke="white"/>
<path d="M324.546 98.749C323.676 99.039 323.276 99.279 321.946 101.039C320.616 102.809 320.086 104.279 317.896 107.589C315.716 110.889 314.166 113.249 311.006 117.569C307.846 121.899 305.586 124.859 302.116 129.209C298.646 133.559 296.416 135.689 293.666 139.309C290.906 142.939 289.106 144.829 288.366 147.329C287.616 149.839 288.336 151.269 289.916 151.839C291.506 152.409 292.926 151.959 296.286 150.189C299.636 148.419 301.696 146.359 306.666 142.969C311.646 139.579 314.996 137.119 321.166 133.239C327.346 129.349 331.186 126.819 337.546 123.539C343.906 120.249 347.776 118.569 352.976 116.809C358.186 115.039 360.706 114.949 363.576 114.719C366.446 114.489 366.966 114.589 367.316 115.659C367.676 116.729 366.826 117.589 365.356 120.059C363.886 122.529 362.576 124.609 359.976 127.999C357.376 131.389 355.306 133.419 352.376 137.009C349.436 140.589 347.346 142.539 345.306 145.919C343.266 149.289 342.296 151.099 342.176 153.879C342.056 156.659 342.496 158.389 344.706 159.819C346.916 161.249 348.916 161.389 353.216 161.019C357.516 160.659 360.246 159.819 366.216 157.989C372.186 156.149 375.846 154.699 383.066 151.859C390.276 149.019 394.626 147.119 402.306 143.769C409.976 140.429 414.166 138.379 421.456 135.139C428.746 131.899 432.476 130.189 438.756 127.559C445.026 124.929 448.176 123.659 452.826 121.989C457.476 120.319 459.566 120.219 462.006 119.209C464.436 118.199 464.976 117.569 465.006 116.929C465.036 116.289 464.156 115.659 462.166 116.009C460.176 116.349 458.396 117.089 455.056 118.649C451.716 120.209 449.506 121.599 445.466 123.799C441.416 125.999 438.886 127.269 434.826 129.669C430.766 132.069 428.386 133.279 425.186 135.799C421.976 138.309 420.236 139.659 418.816 142.229C417.396 144.809 417.296 146.559 418.086 148.649C418.876 150.749 420.016 151.999 422.756 152.719C425.496 153.449 427.666 153.139 431.786 152.279C435.916 151.419 438.376 150.369 443.386 148.409C448.396 146.459 451.446 145.129 456.856 142.519C462.256 139.899 465.266 138.269 470.426 135.319C475.576 132.359 478.226 130.659 482.636 127.749C487.056 124.849 489.296 123.379 492.496 120.799C495.696 118.219 497.266 116.979 498.636 114.849C500.016 112.729 499.926 111.589 499.366 110.169C498.806 108.749 497.866 108.049 495.846 107.749C493.826 107.459 491.976 107.449 489.266 108.699C486.556 109.949 484.946 111.459 482.296 113.989C479.646 116.519 478.276 118.149 476.016 121.349C473.746 124.559 472.606 126.429 470.976 130.009C469.356 133.589 468.776 135.439 467.876 139.249C466.986 143.049 466.856 144.979 466.506 149.039C466.166 153.099 466.346 155.179 466.136 159.549C465.926 163.919 465.976 166.189 465.466 170.899C464.946 175.609 464.506 178.189 463.556 183.099C462.596 188.009 462.166 190.619 460.686 195.429C459.206 200.239 458.436 202.609 456.136 207.169C453.826 211.739 452.256 213.989 449.166 218.239C446.066 222.489 444.256 224.789 440.656 228.419C437.046 232.049 434.896 233.759 431.146 236.389C427.406 239.029 425.146 240.149 421.916 241.599C418.696 243.039 417.076 243.399 415.046 243.619C413.006 243.839 412.566 243.949 411.746 242.709C410.916 241.469 410.656 240.539 410.916 237.429C411.176 234.309 411.256 231.999 413.046 227.129C414.846 222.249 416.346 219.199 419.876 213.029C423.406 206.869 425.616 203.399 430.696 196.299C435.786 189.199 438.806 185.319 445.276 177.539C451.756 169.749 455.576 165.499 463.086 157.359C470.596 149.219 474.696 145.099 482.836 136.829C490.966 128.559 495.356 124.289 503.766 115.999C512.186 107.709 516.826 103.639 524.896 95.389C532.976 87.149 536.996 82.869 544.146 74.769C551.296 66.669 554.756 62.359 560.626 54.909C566.506 47.459 569.336 43.899 573.536 37.519C577.736 31.129 579.466 28.119 581.606 22.999C583.756 17.889 584.376 15.529 584.236 11.929C584.106 8.32902 583.316 6.77902 580.926 5.01902C578.526 3.25902 576.486 2.70905 572.266 3.13905C568.046 3.57905 565.196 4.33904 559.836 7.19904C554.476 10.059 551.406 12.339 545.456 17.439C539.496 22.539 536.136 25.889 530.046 32.699C523.946 39.509 520.466 43.659 514.996 51.499C509.526 59.339 507.016 63.879 502.706 71.879C498.386 79.879 496.386 84.139 493.436 91.499C490.496 98.859 489.326 102.499 487.986 108.689C486.636 114.869 486.366 117.649 486.706 122.419C487.036 127.189 487.566 129.179 489.676 132.529C491.776 135.879 493.536 137.229 497.226 139.169C500.916 141.119 503.506 141.559 508.096 142.239C512.696 142.909 515.686 142.499 520.216 142.559C524.736 142.619 527.136 142.289 530.736 142.559C534.346 142.829 536.106 143.229 538.226 143.899C540.346 144.559 540.846 144.529 541.356 145.889C541.866 147.259 541.116 148.459 540.776 150.719C540.436 152.979 539.826 154.779 539.656 157.219C539.496 159.649 539.536 160.959 539.956 162.899C540.376 164.829 541.006 166.139 541.766 166.889C542.526 167.639 543.196 167.449 543.766 166.649C544.346 165.849 544.226 164.659 544.646 162.899C545.076 161.139 545.556 160.259 545.886 157.849C546.216 155.439 546.546 153.579 546.316 150.839C546.076 148.099 546.046 146.359 544.726 144.159C543.416 141.969 542.486 140.999 539.746 139.849C536.996 138.689 534.916 138.619 531.016 138.399C527.106 138.179 524.706 138.689 520.226 138.729C515.746 138.759 512.886 139.099 508.606 138.559C504.326 138.009 502.066 137.569 498.816 136.019C495.556 134.469 494.226 133.559 492.336 130.789C490.456 128.029 489.826 126.519 489.396 122.189C488.966 117.859 489.016 115.139 490.186 109.139C491.356 103.149 492.416 99.489 495.236 92.209C498.056 84.929 500.026 80.669 504.276 72.729C508.526 64.789 511.026 60.269 516.466 52.529C521.906 44.789 525.396 40.679 531.496 34.019C537.596 27.359 541.016 24.069 546.956 19.239C552.886 14.399 556.046 12.359 561.186 9.84904C566.326 7.33904 569.076 7.11902 572.666 6.67902C576.246 6.23902 577.396 6.58904 579.096 7.65904C580.796 8.72904 581.086 9.12902 581.146 12.019C581.196 14.919 581.216 17.219 579.376 22.119C577.536 27.009 575.946 30.129 571.946 36.489C567.946 42.849 565.146 46.459 559.366 53.929C553.596 61.389 550.156 65.709 543.066 73.819C535.976 81.919 531.966 86.189 523.916 94.439C515.866 102.679 511.226 106.749 502.816 115.029C494.396 123.309 489.996 127.579 481.836 135.839C473.666 144.109 469.546 148.219 461.976 156.339C454.416 164.459 450.566 168.689 443.986 176.449C437.416 184.209 434.346 188.069 429.096 195.129C423.846 202.189 421.546 205.589 417.726 211.749C413.906 217.899 412.176 220.819 409.976 225.899C407.786 230.979 406.966 233.369 406.766 237.149C406.566 240.929 407.296 242.699 408.976 244.789C410.656 246.879 412.256 247.519 415.166 247.579C418.086 247.649 419.956 246.809 423.546 245.109C427.136 243.409 429.246 241.989 433.106 239.079C436.966 236.169 439.146 234.379 442.846 230.569C446.536 226.749 448.386 224.399 451.576 219.989C454.766 215.589 456.386 213.249 458.796 208.529C461.206 203.799 462.046 201.309 463.626 196.349C465.216 191.399 465.676 188.749 466.726 183.739C467.766 178.729 468.246 176.099 468.856 171.299C469.466 166.499 469.476 164.139 469.776 159.759C470.076 155.379 469.936 153.309 470.346 149.399C470.756 145.489 470.906 143.719 471.806 140.209C472.696 136.689 473.236 135.039 474.816 131.829C476.406 128.619 477.496 126.879 479.726 124.159C481.946 121.429 483.406 120.139 485.936 118.209C488.456 116.269 490.256 115.799 492.356 114.479C494.466 113.149 495.396 112.359 496.446 111.579C497.506 110.799 497.826 110.419 497.646 110.579C497.456 110.739 497.036 110.899 495.536 112.379C494.036 113.859 493.066 115.429 490.146 117.999C487.226 120.579 485.166 122.279 480.936 125.249C476.706 128.209 474.076 129.929 468.996 132.829C463.926 135.739 460.936 137.339 455.566 139.779C450.196 142.219 447.096 143.419 442.176 145.049C437.246 146.679 434.696 147.289 430.956 147.949C427.216 148.609 425.496 148.379 423.456 148.339C421.416 148.289 420.936 148.479 420.746 147.739C420.546 146.989 421.086 146.379 422.486 144.629C423.886 142.879 424.886 141.329 427.746 139.009C430.606 136.689 432.836 135.279 436.776 133.029C440.726 130.779 443.346 129.669 447.456 127.749C451.576 125.829 454.056 125.069 457.356 123.449C460.656 121.819 462.396 121.029 463.956 119.609C465.516 118.189 465.756 117.129 465.136 116.339C464.526 115.549 463.546 115.049 460.876 115.659C458.206 116.259 456.396 117.389 451.796 119.349C447.186 121.309 444.086 122.699 437.856 125.469C431.616 128.249 427.886 129.979 420.606 133.249C413.326 136.519 409.146 138.559 401.466 141.829C393.776 145.099 389.416 146.949 382.206 149.599C374.986 152.249 371.256 153.529 365.386 155.049C359.526 156.579 356.686 156.819 352.866 157.209C349.036 157.589 347.676 157.529 346.276 156.969C344.876 156.409 345.316 156.159 345.846 154.409C346.376 152.649 346.986 151.159 348.936 148.209C350.876 145.249 352.676 143.159 355.586 139.649C358.486 136.139 360.706 134.219 363.446 130.679C366.196 127.129 368.086 125.139 369.306 121.919C370.516 118.709 370.696 116.699 369.526 114.599C368.366 112.499 366.996 111.499 363.496 111.419C360.006 111.339 357.476 112.219 352.056 114.199C346.636 116.179 342.856 117.969 336.396 121.309C329.936 124.659 326.076 127.169 319.756 130.939C313.446 134.709 309.956 136.999 304.846 140.159C299.736 143.319 297.176 144.719 294.206 146.719C291.246 148.719 290.556 149.729 290.026 150.169C289.496 150.599 290.246 150.619 291.566 148.899C292.886 147.179 293.986 145.069 296.626 141.559C299.276 138.039 301.286 135.669 304.766 131.329C308.246 126.999 310.616 124.089 314.006 119.879C317.406 115.659 319.346 113.559 321.746 110.249C324.136 106.939 325.076 105.489 325.976 103.349C326.886 101.219 326.556 100.489 326.276 99.569C325.986 98.649 325.406 98.459 324.546 98.749Z" fill="white" stroke="white"/>
</svg>
