<svg width="279" height="162" viewBox="0 0 279 162" fill="none" xmlns="http://www.w3.org/2000/svg">
<path d="M127.681 7.69398C127.421 6.59398 126.681 5.37398 125.011 4.16398C123.341 2.95398 121.981 2.234 119.321 1.654C116.661 1.064 115.271 0.744005 111.721 1.25401C108.161 1.76401 106.181 2.47399 101.561 4.20399C96.941 5.93399 94.391 6.864 88.621 9.904C82.841 12.934 79.531 14.784 72.681 19.394C65.821 24.004 61.651 26.834 54.341 32.964C47.031 39.104 42.961 42.704 36.121 50.084C29.291 57.454 25.731 61.814 20.171 69.844C14.611 77.874 11.941 82.264 8.31099 90.234C4.69099 98.194 3.35098 102.444 2.05098 109.664C0.750982 116.884 0.640991 120.554 1.81099 126.344C2.97099 132.134 4.46099 134.724 7.87099 138.614C11.291 142.494 13.791 144.094 18.881 145.774C23.971 147.444 27.141 147.554 33.321 147.004C39.501 146.454 43.071 145.394 49.761 143.034C56.461 140.674 60.151 138.844 66.801 135.184C73.451 131.534 77.141 129.104 83.011 124.754C88.891 120.404 91.741 117.994 96.171 113.414C100.611 108.844 102.391 106.214 105.191 101.874C107.991 97.544 108.941 95.454 110.191 91.744C111.441 88.024 111.701 86.084 111.441 83.294C111.171 80.504 110.131 79.184 108.851 77.814C107.561 76.434 106.461 76.204 104.991 76.414C103.521 76.624 102.311 77.334 101.501 78.854C100.691 80.374 100.381 81.904 100.941 84.024C101.501 86.144 102.331 87.534 104.311 89.464C106.281 91.384 107.781 92.254 110.821 93.654C113.861 95.054 115.731 95.634 119.521 96.444C123.311 97.264 125.711 97.304 129.771 97.714C133.821 98.124 135.971 98.334 139.801 98.484C143.641 98.634 145.761 98.524 148.951 98.474C152.131 98.424 153.631 98.314 155.731 98.234C157.831 98.154 158.501 98.104 159.451 98.064C160.411 98.024 160.611 97.844 160.501 98.044C160.401 98.244 159.871 98.184 158.931 99.044C157.981 99.904 157.181 100.654 155.791 102.354C154.391 104.054 153.671 105.214 151.931 107.524C150.201 109.844 149.281 111.274 147.101 113.944C144.911 116.614 143.341 118.164 141.011 120.884C138.671 123.614 137.301 124.974 135.411 127.574C133.521 130.184 132.641 131.404 131.551 133.914C130.451 136.414 130.041 137.714 129.951 140.094C129.861 142.474 130.221 143.694 131.081 145.824C131.941 147.954 132.581 148.904 134.271 150.764C135.961 152.614 137.111 153.654 139.551 155.094C141.981 156.534 143.491 156.994 146.431 157.964C149.361 158.944 150.851 159.354 154.221 159.974C157.581 160.594 159.481 160.884 163.271 161.064C167.061 161.244 169.111 161.254 173.151 160.854C177.201 160.454 179.291 160.164 183.491 159.064C187.691 157.964 189.781 157.224 194.171 155.364C198.571 153.504 200.941 152.454 205.471 149.774C210.001 147.084 212.321 145.414 216.821 141.934C221.321 138.444 223.581 136.474 227.961 132.334C232.341 128.184 234.481 125.744 238.741 121.204C242.991 116.664 245.291 114.384 249.231 109.624C253.181 104.864 254.981 102.304 258.471 97.424C261.961 92.544 263.741 90.014 266.671 85.224C269.611 80.434 271.081 78.024 273.171 73.464C275.261 68.904 276.131 66.644 277.121 62.424C278.121 58.194 278.381 56.164 278.121 52.324C277.861 48.484 277.321 46.594 275.841 43.234C274.351 39.884 273.371 38.264 270.711 35.544C268.041 32.834 266.251 31.514 262.511 29.654C258.771 27.784 256.431 26.994 251.991 26.214C247.541 25.434 244.891 25.284 240.291 25.744C235.691 26.204 233.261 26.764 229.001 28.534C224.731 30.304 222.531 31.624 218.961 34.594C215.401 37.564 213.601 39.574 211.181 43.394C208.761 47.214 207.751 49.444 206.871 53.694C206.001 57.954 206.061 60.234 206.801 64.674C207.541 69.104 208.471 71.434 210.571 75.864C212.681 80.284 214.361 82.514 217.331 86.794C220.301 91.064 222.271 93.204 225.431 97.224C228.591 101.234 230.421 103.204 233.141 106.884C235.861 110.564 237.221 112.244 239.031 115.604C240.851 118.974 241.381 120.504 242.211 123.714C243.031 126.914 242.481 130.064 243.161 131.634C243.831 133.204 245.041 133.294 245.591 131.544C246.151 129.794 246.611 126.414 245.931 122.884C245.251 119.344 244.221 117.474 242.191 113.864C240.171 110.264 238.661 108.604 235.811 104.874C232.971 101.144 231.121 99.204 227.961 95.224C224.801 91.234 222.871 89.094 220.001 84.944C217.131 80.784 215.561 78.594 213.611 74.424C211.651 70.264 210.881 68.104 210.221 64.104C209.571 60.104 209.561 58.184 210.351 54.424C211.151 50.664 212.021 48.734 214.191 45.304C216.371 41.874 217.991 39.994 221.221 37.294C224.451 34.594 226.451 33.374 230.341 31.794C234.221 30.204 236.441 29.724 240.631 29.364C244.821 29.004 247.281 29.204 251.291 29.974C255.311 30.754 257.411 31.534 260.701 33.234C263.991 34.924 265.461 36.114 267.741 38.454C270.031 40.784 270.801 42.084 272.131 44.924C273.451 47.754 274.021 49.284 274.361 52.634C274.701 55.994 274.621 57.784 273.831 61.704C273.041 65.614 272.301 67.814 270.401 72.234C268.491 76.644 267.111 79.054 264.301 83.784C261.491 88.524 259.741 91.064 256.331 95.904C252.921 100.744 251.151 103.274 247.251 107.984C243.351 112.684 241.061 114.944 236.831 119.414C232.601 123.894 230.461 126.304 226.101 130.354C221.751 134.394 219.501 136.284 215.061 139.624C210.621 142.964 208.331 144.534 203.891 147.054C199.461 149.564 197.141 150.524 192.881 152.194C188.621 153.874 186.611 154.514 182.601 155.434C178.591 156.344 176.631 156.534 172.831 156.754C169.021 156.984 167.091 156.904 163.581 156.574C160.071 156.244 158.321 155.894 155.271 155.124C152.231 154.344 150.921 153.714 148.361 152.684C145.811 151.654 144.561 151.124 142.501 149.974C140.431 148.824 139.481 148.144 138.041 146.924C136.601 145.704 136.031 145.194 135.311 143.874C134.591 142.564 134.291 141.924 134.421 140.344C134.561 138.774 134.961 137.964 135.971 136.004C136.991 134.054 137.751 132.944 139.511 130.564C141.261 128.184 142.441 126.744 144.741 124.104C147.031 121.464 148.601 119.904 150.991 117.374C153.381 114.834 154.671 113.674 156.681 111.454C158.701 109.224 159.721 108.284 161.071 106.244C162.421 104.214 163.041 103.094 163.431 101.284C163.811 99.484 163.601 98.534 163.001 97.224C162.401 95.924 161.871 95.504 160.451 94.754C159.021 94.004 158.211 93.694 155.881 93.464C153.561 93.234 152.001 93.494 148.811 93.624C145.611 93.754 143.631 94.164 139.921 94.114C136.211 94.064 134.101 93.824 130.251 93.364C126.401 92.894 124.041 92.744 120.671 91.784C117.301 90.824 115.811 89.924 113.381 88.564C110.961 87.204 109.971 86.304 108.541 84.994C107.101 83.694 106.811 83.014 106.201 82.024C105.581 81.034 105.611 80.674 105.451 80.074C105.291 79.464 105.291 79.054 105.421 79.004C105.541 78.944 105.701 78.864 106.061 79.794C106.411 80.734 107.031 81.474 107.191 83.654C107.341 85.844 107.701 87.374 106.821 90.724C105.951 94.074 105.291 96.204 102.811 100.404C100.331 104.604 98.651 107.234 94.421 111.744C90.191 116.254 87.401 118.654 81.661 122.944C75.921 127.234 72.241 129.624 65.711 133.194C59.171 136.754 55.491 138.514 48.971 140.764C42.451 143.004 38.951 143.924 33.101 144.414C27.241 144.904 24.371 144.714 19.711 143.214C15.051 141.714 12.921 140.374 9.78096 136.914C6.65096 133.444 5.19096 131.264 4.03096 125.874C2.87096 120.494 2.82099 116.984 4.00099 110.004C5.17099 103.024 6.41098 98.804 9.92098 90.954C13.431 83.114 16.051 78.734 21.541 70.794C27.031 62.844 30.571 58.514 37.361 51.234C44.161 43.954 48.221 40.394 55.521 34.384C62.821 28.384 67.011 25.614 73.871 21.194C80.731 16.784 84.071 15.044 89.831 12.314C95.591 9.594 98.201 8.82398 102.671 7.57398C107.131 6.32398 109.081 6.154 112.151 6.064C115.221 5.974 115.931 6.584 118.031 7.124C120.121 7.664 120.981 8.25398 122.631 8.76398C124.281 9.27398 125.281 9.88399 126.291 9.67399C127.301 9.46399 127.941 8.79398 127.681 7.69398Z" fill="white" stroke="white"/>
</svg>
