<svg width="659" height="323" viewBox="0 0 659 323" fill="none" xmlns="http://www.w3.org/2000/svg">
<path d="M88.96 35.677C88.54 33.817 87.28 31.617 84.35 30.127C81.43 28.627 78.94 28.107 74.34 28.187C69.74 28.267 66.77 28.227 61.34 30.507C55.91 32.777 52.97 34.517 47.21 39.567C41.45 44.607 38.24 47.897 32.56 55.737C26.87 63.567 23.71 68.497 18.79 78.737C13.88 88.987 11.34 95.327 7.97 106.967C4.6 118.607 3.15 125.417 1.94 136.947C0.74 148.487 0.63001 154.707 1.95001 164.627C3.27001 174.557 4.62001 179.457 8.54001 186.587C12.46 193.707 15.38 196.787 21.54 200.237C27.71 203.687 31.81 204.317 39.38 203.817C46.95 203.317 51.43 201.707 59.41 197.737C67.39 193.757 71.84 190.537 79.29 183.937C86.74 177.347 90.58 172.867 96.66 164.777C102.74 156.677 105.56 151.707 109.68 143.447C113.81 135.187 115.44 130.637 117.27 123.457C119.1 116.267 119.48 112.817 118.85 107.517C118.22 102.227 117.11 99.707 114.13 96.967C111.15 94.217 108.31 93.707 103.96 93.807C99.6 93.907 96.85 95.197 92.35 97.467C87.86 99.737 85.37 101.707 81.49 105.147C77.61 108.577 75.58 110.777 72.94 114.637C70.29 118.497 68.6 120.697 68.27 124.457C67.94 128.207 68.83 130.927 71.28 133.427C73.73 135.937 76.17 136.797 80.52 136.987C84.87 137.177 87.58 136.167 93.05 134.367C98.52 132.577 101.8 130.927 107.89 128.017C113.97 125.097 117.51 122.987 123.49 119.807C129.47 116.627 132.94 114.387 137.79 112.117C142.63 109.837 145.04 108.937 147.71 108.437C150.37 107.927 150.13 107.587 151.12 109.577C152.12 111.557 152.65 113.047 152.68 118.347C152.71 123.647 152.24 127.697 151.26 136.067C150.29 144.437 149.35 149.777 147.82 160.177C146.3 170.577 145.28 176.657 143.65 188.067C142.01 199.477 141.12 205.847 139.67 217.237C138.22 228.627 137.58 234.697 136.39 245.027C135.2 255.357 134.73 260.547 133.74 268.867C132.75 277.197 132.36 281.067 131.43 286.657C130.49 292.247 129.28 294.297 129.08 296.827C128.87 299.357 130.06 299.797 130.4 299.337C130.75 298.867 131.35 297.767 130.82 294.517C130.29 291.267 128.85 288.797 127.75 283.067C126.66 277.337 125.82 273.387 125.34 265.857C124.87 258.337 124.68 253.707 125.37 245.437C126.07 237.167 126.74 232.627 128.82 224.497C130.89 216.367 132.31 212.287 135.75 204.777C139.19 197.277 141.35 193.717 145.99 186.947C150.64 180.187 153.4 177.057 158.98 170.957C164.57 164.857 167.74 162.027 173.92 156.447C180.09 150.867 183.5 148.237 189.84 143.067C196.19 137.897 199.64 135.477 205.65 130.617C211.65 125.747 214.79 123.447 219.87 118.767C224.96 114.077 227.49 111.827 231.08 107.197C234.68 102.557 236.35 100.257 237.86 95.587C239.37 90.917 239.65 88.217 238.63 83.857C237.61 79.497 236.08 77.127 232.74 73.787C229.41 70.447 226.81 69.047 221.96 67.157C217.11 65.267 214.02 64.567 208.49 64.327C202.96 64.087 199.64 64.397 194.3 65.937C188.96 67.477 185.99 68.797 181.78 72.037C177.57 75.267 175.46 77.457 173.25 82.097C171.03 86.737 170.38 89.737 170.69 95.257C170.99 100.767 172.02 103.897 174.79 109.687C177.55 115.467 179.9 118.517 184.51 124.187C189.11 129.857 192.25 132.677 197.83 138.037C203.41 143.407 206.84 145.957 212.41 150.997C217.99 156.037 221.14 158.527 225.7 163.237C230.26 167.947 232.49 170.277 235.21 174.577C237.92 178.867 238.76 180.857 239.28 184.697C239.81 188.547 239.5 190.187 237.82 193.797C236.15 197.407 234.65 199.327 230.91 202.777C227.17 206.217 224.36 208.127 219.14 211.017C213.91 213.907 210.44 215.357 204.79 217.227C199.15 219.107 195.7 219.837 190.93 220.387C186.15 220.937 183.69 220.487 180.91 219.977C178.13 219.457 177.73 219.267 177.02 217.807C176.31 216.357 176.23 215.787 177.36 212.697C178.49 209.607 179.45 207.067 182.67 202.357C185.89 197.657 188.37 194.607 193.48 189.177C198.58 183.747 201.93 180.567 208.19 175.217C214.45 169.877 218.18 167.017 224.76 162.447C231.35 157.867 235 155.617 241.11 152.347C247.22 149.087 250.44 147.687 255.32 146.107C260.19 144.527 262.51 144.317 265.49 144.447C268.48 144.587 268.82 144.947 270.23 146.777C271.65 148.607 272.01 149.857 272.57 153.597C273.12 157.347 273.13 160.227 273 165.497C272.87 170.777 272.39 174.347 271.93 179.977C271.46 185.607 270.75 188.877 270.66 193.647C270.57 198.417 269.97 200.977 271.46 203.817C272.94 206.657 275.21 207.947 278.08 207.857C280.94 207.757 282.7 206.567 285.77 203.347C288.83 200.117 290.1 197.147 293.39 191.717C296.69 186.287 298.63 182.377 302.25 176.177C305.87 169.987 308.01 166.077 311.49 160.747C314.98 155.417 317.23 152.547 319.68 149.537C322.13 146.527 322.76 145.767 323.76 145.667C324.76 145.567 324.08 146.307 324.67 149.037C325.26 151.767 325.98 154.397 326.72 159.337C327.46 164.287 327.69 168.087 328.39 173.747C329.09 179.417 329.18 182.867 330.22 187.677C331.26 192.477 331.28 195.117 333.57 197.787C335.86 200.457 338.39 201.487 341.67 201.017C344.95 200.547 346.76 198.917 349.99 195.437C353.22 191.967 354.62 188.907 357.81 183.647C361.01 178.397 362.79 174.647 365.97 169.157C369.14 163.667 371.22 160.157 373.71 156.207C376.2 152.257 377.59 150.747 378.43 149.387C379.27 148.037 377.92 147.887 377.91 149.447C377.91 151.007 378.03 152.997 378.39 157.177C378.75 161.357 378.94 164.907 379.7 170.347C380.45 175.797 380.72 179.327 382.18 184.417C383.63 189.517 384.24 192.347 386.96 195.837C389.68 199.317 391.8 201.107 395.78 201.837C399.76 202.567 402.38 201.767 406.85 199.497C411.33 197.227 413.63 195.027 418.14 190.487C422.66 185.947 425.09 182.627 429.42 176.787C433.76 170.947 436.1 167.127 439.81 161.277C443.52 155.427 445.43 152.187 447.97 147.547C450.51 142.897 452.21 141.017 452.51 138.057C452.81 135.087 451.53 133.647 449.47 132.737C447.41 131.827 444.86 131.687 442.2 133.497C439.54 135.307 438.39 137.827 436.16 141.777C433.93 145.727 432.72 148.527 431.04 153.227C429.37 157.927 428.31 160.757 427.78 165.277C427.24 169.807 426.79 172.577 428.36 175.847C429.92 179.117 432.27 180.957 435.62 181.627C438.97 182.307 441.46 181.577 445.12 179.237C448.77 176.887 450.57 174.427 453.9 169.897C457.23 165.367 459.06 162.177 461.78 156.597C464.51 151.027 465.84 147.517 467.53 142.027C469.22 136.537 470.1 133.607 470.23 129.157C470.36 124.697 470.1 122.307 468.19 119.757C466.27 117.217 463.79 116.177 460.66 116.407C457.53 116.637 455.13 117.827 452.53 120.927C449.93 124.027 449.03 126.727 447.66 131.907C446.29 137.087 445.83 140.247 445.69 146.827C445.54 153.407 445.78 157.187 446.94 164.807C448.11 172.437 449.19 176.647 451.5 184.937C453.82 193.237 455.52 197.657 458.53 206.297C461.54 214.937 463.51 219.467 466.56 228.157C469.61 236.847 471.42 241.367 473.78 249.757C476.15 258.147 477.34 262.447 478.4 270.107C479.45 277.777 479.69 281.657 479.08 288.107C478.46 294.557 477.6 297.617 475.34 302.357C473.08 307.097 471.32 309.037 467.78 311.797C464.25 314.557 461.99 315.437 457.66 316.137C453.33 316.847 450.66 316.747 446.13 315.327C441.61 313.897 438.94 312.667 435.03 308.997C431.12 305.337 428.98 302.847 426.57 296.987C424.16 291.127 423.14 287.467 422.99 279.707C422.84 271.937 423.41 267.357 425.82 258.167C428.23 248.977 430.28 243.967 435.04 233.747C439.81 223.527 443.07 218.087 449.64 207.077C456.2 196.057 460.2 190.267 467.85 178.677C475.5 167.087 479.91 161.037 487.87 149.127C495.84 137.207 500.19 130.987 507.68 119.097C515.17 107.207 519.01 101.047 525.34 89.687C531.67 78.317 534.73 72.527 539.32 62.297C543.91 52.067 545.81 47.017 548.3 38.527C550.79 30.037 551.47 26.157 551.77 19.827C552.07 13.497 551.9 10.637 549.8 6.87696C547.7 3.10696 545.12 1.20698 541.27 1.01698C537.41 0.826977 534.62 2.21696 530.52 5.93696C526.42 9.65696 524.36 12.577 520.77 19.617C517.18 26.657 515.33 31.277 512.57 41.117C509.81 50.967 508.57 57.127 506.97 68.837C505.38 80.557 504.86 87.537 504.6 99.707C504.34 111.867 504.6 118.627 505.67 129.667C506.74 140.707 507.67 146.277 509.94 154.887C512.2 163.497 513.61 167.267 517.01 172.717C520.41 178.167 522.49 180.247 526.94 182.137C531.39 184.037 534.39 183.747 539.25 182.187C544.11 180.637 546.75 178.327 551.26 174.367C555.77 170.417 558.05 167.137 561.8 162.417C565.56 157.697 567.58 154.397 570.02 150.767C572.46 147.137 573.36 145.477 574.01 144.287C574.66 143.107 573.13 143.157 573.29 144.837C573.44 146.517 573.71 148.507 574.81 152.687C575.9 156.877 576.61 160.357 578.76 165.767C580.91 171.177 582.19 174.707 585.56 179.737C588.92 184.767 590.93 187.517 595.59 190.937C600.24 194.347 603.14 195.797 608.82 196.837C614.51 197.867 617.91 197.667 624 196.107C630.08 194.547 633.79 192.387 639.26 189.037C644.72 185.687 647.51 183.017 651.32 179.347C655.13 175.687 657.51 172.967 658.3 170.697C659.1 168.437 657.4 167.047 655.3 168.017C653.2 168.987 651.57 172.227 647.81 175.537C644.05 178.857 641.52 181.437 636.5 184.587C631.48 187.737 628.07 189.807 622.72 191.277C617.36 192.737 614.53 192.807 609.73 191.907C604.93 191.017 602.6 189.817 598.72 186.787C594.84 183.747 593.06 181.387 590.32 176.737C587.58 172.087 586.69 168.727 585.01 163.517C583.33 158.307 583.23 155.037 581.91 150.687C580.6 146.327 580.58 143.897 578.42 141.737C576.27 139.577 573.9 138.857 571.14 139.907C568.38 140.947 567.42 143.167 564.63 146.957C561.83 150.747 560.57 154.207 557.16 158.867C553.74 163.537 551.49 166.597 547.57 170.287C543.64 173.987 541.3 175.807 537.52 177.337C533.73 178.867 532.11 179.287 528.64 177.957C525.17 176.627 523.31 175.477 520.17 170.697C517.02 165.927 515.28 162.327 512.93 154.067C510.57 145.807 509.52 140.257 508.39 129.387C507.26 118.527 506.97 111.797 507.25 99.767C507.53 87.737 508.08 80.777 509.79 69.237C511.51 57.707 512.86 51.597 515.81 42.077C518.77 32.567 520.92 28.097 524.57 21.657C528.23 15.227 530.77 12.897 534.1 9.89698C537.43 6.90698 538.95 6.82697 541.22 6.69697C543.49 6.55697 544.1 6.61697 545.44 9.22697C546.77 11.837 547.92 14.027 547.91 19.727C547.9 25.427 547.58 29.407 545.4 37.717C543.23 46.037 541.43 51.107 537.03 61.287C532.62 71.457 529.61 77.257 523.38 88.597C517.15 99.937 513.33 106.097 505.88 117.967C498.42 129.837 494.08 136.047 486.1 147.937C478.13 159.837 473.7 165.867 465.99 177.447C458.28 189.017 454.23 194.787 447.54 205.817C440.85 216.837 437.51 222.257 432.54 232.557C427.58 242.857 425.38 247.887 422.72 257.327C420.06 266.757 419.28 271.477 419.23 279.727C419.19 287.977 420.04 292.017 422.51 298.587C424.97 305.147 427.18 308.207 431.58 312.567C435.98 316.927 439.1 318.637 444.5 320.407C449.89 322.177 453.28 322.357 458.57 321.417C463.85 320.477 466.75 319.147 470.93 315.707C475.1 312.277 477.01 309.687 479.43 304.237C481.86 298.777 482.54 295.367 483.05 288.437C483.55 281.507 483.15 277.517 481.95 269.597C480.74 261.677 479.47 257.347 477.01 248.837C474.56 240.337 472.72 235.797 469.67 227.067C466.62 218.337 464.67 213.807 461.75 205.187C458.83 196.567 457.2 192.167 455.08 183.977C452.97 175.787 452 171.617 451.16 164.247C450.32 156.877 450.3 153.177 450.88 147.117C451.46 141.057 452.43 138.187 454.06 133.947C455.68 129.707 457.44 128.247 459.02 125.927C460.59 123.617 461.18 122.977 461.95 122.367C462.72 121.757 462.52 121.567 462.86 122.877C463.19 124.177 463.81 125.387 463.62 128.887C463.43 132.387 463.34 135.347 461.91 140.357C460.49 145.367 459.16 148.847 456.51 153.937C453.85 159.037 451.79 162.007 448.65 165.837C445.52 169.657 443.24 171.177 440.82 173.067C438.39 174.967 437.57 175.277 436.54 175.317C435.5 175.357 435.87 175.067 435.64 173.267C435.41 171.467 434.85 169.757 435.4 166.317C435.95 162.877 436.69 160.047 438.38 156.067C440.06 152.077 441.7 149.667 443.82 146.397C445.94 143.127 447.91 141.967 448.98 139.707C450.05 137.437 449.7 135.767 449.18 135.047C448.65 134.337 447.58 134.147 446.34 136.137C445.1 138.127 445.1 140.477 442.98 144.997C440.85 149.517 439.19 152.967 435.7 158.737C432.22 164.507 429.8 168.277 425.53 173.857C421.26 179.427 418.65 182.557 414.36 186.607C410.07 190.657 407.58 192.307 404.1 194.077C400.61 195.857 399.3 195.897 396.93 195.477C394.55 195.067 393.89 194.557 392.21 192.007C390.52 189.457 389.6 187.247 388.52 182.747C387.44 178.237 387.36 174.797 386.81 169.487C386.25 164.177 386.55 160.747 385.75 156.207C384.96 151.657 384.92 149.027 382.83 146.767C380.75 144.507 378.19 143.687 375.33 144.897C372.46 146.107 371.37 148.537 368.5 152.817C365.63 157.087 364.16 160.757 360.97 166.267C357.79 171.767 355.81 175.417 352.58 180.347C349.35 185.277 347.29 187.907 344.82 190.897C342.36 193.887 341.37 194.707 340.26 195.317C339.15 195.937 339.95 195.797 339.26 193.987C338.56 192.187 337.64 190.497 336.78 186.287C335.92 182.087 335.6 178.547 334.94 172.957C334.27 167.367 334.27 163.617 333.47 158.317C332.66 153.027 332.85 149.947 330.92 146.487C328.99 143.037 326.92 141.187 323.82 141.037C320.73 140.887 318.77 142.327 315.45 145.717C312.13 149.107 310.73 152.427 307.21 157.987C303.69 163.547 301.63 167.447 297.86 173.537C294.08 179.627 291.83 183.407 288.35 188.447C284.86 193.487 282.68 195.797 280.43 198.747C278.17 201.697 277.61 202.567 277.08 203.207C276.55 203.837 277.72 203.807 277.78 201.917C277.84 200.027 277.33 198.057 277.39 193.757C277.45 189.467 277.68 186.057 278.07 180.447C278.45 174.827 279.12 171.277 279.32 165.687C279.51 160.097 279.91 157.147 279.05 152.507C278.2 147.877 277.7 145.257 275.04 142.507C272.38 139.747 270.01 138.907 265.75 138.727C261.48 138.537 259.04 139.567 253.72 141.567C248.4 143.577 245.36 145.207 239.13 148.747C232.9 152.297 229.26 154.607 222.56 159.287C215.86 163.967 212.1 166.827 205.63 172.167C199.15 177.497 195.69 180.587 190.2 185.967C184.71 191.347 181.97 194.147 178.17 199.077C174.37 204.017 172.54 206.307 171.19 210.627C169.85 214.957 169.79 217.577 171.44 220.697C173.1 223.807 175.42 225.157 179.47 226.217C183.52 227.277 186.28 226.807 191.68 225.997C197.08 225.187 200.48 224.257 206.47 222.177C212.47 220.107 216.04 218.697 221.67 215.627C227.3 212.547 230.38 210.707 234.62 206.797C238.86 202.887 240.9 200.627 242.88 196.057C244.86 191.487 245.25 188.757 244.52 183.947C243.79 179.127 242.38 176.707 239.23 171.957C236.09 167.217 233.6 164.997 228.78 160.197C223.97 155.397 220.76 152.987 215.15 147.957C209.53 142.937 206.15 140.377 200.72 135.067C195.29 129.747 192.29 126.897 187.99 121.407C183.7 115.917 181.63 112.887 179.24 107.607C176.85 102.327 176.23 99.597 176.04 94.997C175.86 90.387 176.49 88.257 178.33 84.587C180.18 80.907 181.75 79.247 185.26 76.637C188.78 74.027 191.3 72.807 195.89 71.547C200.47 70.287 203.42 70.037 208.18 70.337C212.93 70.627 215.64 71.407 219.66 73.007C223.68 74.617 225.67 75.877 228.29 78.347C230.91 80.817 231.88 82.217 232.75 85.347C233.63 88.477 233.76 90.187 232.67 93.997C231.58 97.797 230.44 100.017 227.31 104.367C224.18 108.727 221.84 111.087 217.03 115.757C212.22 120.417 209.14 122.787 203.25 127.697C197.36 132.607 193.91 135.067 187.57 140.297C181.23 145.527 177.79 148.187 171.57 153.857C165.34 159.517 162.11 162.397 156.43 168.627C150.74 174.857 147.92 178.057 143.16 184.997C138.39 191.947 136.17 195.627 132.61 203.337C129.06 211.057 127.59 215.257 125.37 223.597C123.15 231.937 122.44 236.577 121.51 245.057C120.57 253.547 120.63 258.247 120.68 266.017C120.73 273.797 121.11 277.827 121.75 283.947C122.38 290.057 122.34 293.067 123.86 296.617C125.38 300.167 127.18 301.337 129.36 301.687C131.53 302.037 133.47 301.267 134.74 298.357C136.01 295.457 135.24 293.007 135.7 287.177C136.16 281.347 136.32 277.567 137.02 269.207C137.72 260.837 138.15 255.657 139.22 245.337C140.29 235.007 140.91 228.947 142.36 217.577C143.81 206.207 144.71 199.857 146.45 188.487C148.19 177.107 149.28 171.067 151.07 160.697C152.85 150.327 154.02 145.087 155.36 136.627C156.7 128.167 157.64 124.407 157.78 118.397C157.91 112.387 158.16 109.737 156.04 106.587C153.91 103.437 151.27 102.517 147.15 102.657C143.04 102.797 140.67 104.737 135.47 107.287C130.26 109.837 127.1 112.237 121.14 115.417C115.19 118.597 111.66 120.607 105.69 123.207C99.72 125.807 96.29 127.107 91.29 128.427C86.28 129.737 83.72 129.717 80.65 129.767C77.58 129.817 76.88 129.507 75.92 128.677C74.97 127.857 75.28 127.677 75.87 125.667C76.46 123.657 76.83 121.727 78.87 118.647C80.92 115.557 82.75 113.287 86.07 110.257C89.4 107.227 91.84 105.507 95.51 103.497C99.19 101.487 101.46 100.657 104.45 100.187C107.44 99.727 108.5 99.567 110.46 101.157C112.43 102.737 113.67 103.837 114.3 108.117C114.92 112.407 115.12 115.797 113.6 122.577C112.09 129.357 110.62 133.937 106.73 141.997C102.84 150.057 100.06 154.987 94.14 162.887C88.22 170.787 84.4 175.147 77.14 181.497C69.89 187.847 65.47 190.877 57.87 194.627C50.27 198.377 46.06 199.737 39.13 200.257C32.2 200.777 28.78 200.257 23.21 197.217C17.65 194.177 14.98 191.647 11.29 185.057C7.60001 178.457 6.10001 173.817 4.76001 164.247C3.42001 154.677 3.42999 148.527 4.58999 137.227C5.73999 125.917 7.17001 119.157 10.54 107.717C13.91 96.277 16.47 90.007 21.42 80.017C26.38 70.037 29.6 65.217 35.31 57.787C41.01 50.357 44.36 47.257 49.95 42.867C55.55 38.477 58.48 37.277 63.28 35.827C68.08 34.377 70.43 35.127 73.96 35.617C77.5 36.107 78.46 37.517 80.96 38.277C83.46 39.037 84.88 39.947 86.48 39.427C88.08 38.907 89.39 37.537 88.96 35.677Z" fill="white" stroke="white"/>
</svg>
