<svg width="1003" height="210" viewBox="0 0 1003 210" fill="none" xmlns="http://www.w3.org/2000/svg">
<path d="M61.4702 16.2334C60.9902 15.0334 60.0802 13.9834 58.0202 13.1434C55.9602 12.3034 54.2802 11.6934 51.1602 12.0334C48.0402 12.3734 45.9702 12.9834 42.4202 14.8734C38.8602 16.7534 36.9302 18.1034 33.3702 21.4634C29.8002 24.8334 28.0202 26.7634 24.5902 31.6934C21.1702 36.6134 19.3202 39.4934 16.2502 46.1034C13.1702 52.7134 11.5402 56.6634 9.21021 64.7334C6.88021 72.7934 5.84021 77.6034 4.60021 86.4434C3.35021 95.2734 2.9902 100.253 3.0002 108.913C3.0102 117.563 3.27021 122.123 4.65021 129.723C6.03021 137.333 7.08021 141.053 9.90021 146.933C12.7202 152.813 14.5902 155.423 18.7502 159.143C22.9102 162.873 25.5502 164.293 30.6902 165.553C35.8202 166.813 38.9202 166.803 44.4302 165.453C49.9502 164.093 52.9802 162.403 58.2602 158.773C63.5402 155.133 66.3302 152.483 70.8402 147.283C75.3502 142.093 77.4802 138.883 80.8202 132.793C84.1602 126.693 85.5602 122.983 87.5602 116.813C89.5602 110.653 90.2102 107.413 90.8202 101.973C91.4202 96.5434 91.4102 93.9034 90.5802 89.6534C89.7602 85.4134 88.8902 83.4734 86.6902 80.7434C84.4802 78.0134 82.6402 77.1334 79.5602 76.0234C76.4802 74.9034 74.5002 74.8734 71.2802 75.1634C68.0702 75.4534 66.1702 76.1234 63.4802 77.4734C60.8002 78.8134 59.4502 79.9034 57.8502 81.8934C56.2502 83.8934 55.5602 85.2634 55.4702 87.4234C55.3802 89.5934 55.8502 91.0834 57.4002 92.7334C58.9602 94.3734 60.5102 95.2734 63.2702 95.6334C66.0302 95.9834 67.8002 95.3734 71.2002 94.5034C74.6102 93.6234 76.6002 92.8034 80.3102 91.2734C84.0302 89.7534 86.1902 88.6234 89.7802 86.8534C93.3602 85.0934 95.4902 83.8834 98.2202 82.4434C100.96 81.0034 102.12 80.2034 103.45 79.6534C104.78 79.1034 104.64 78.6434 104.86 79.6934C105.09 80.7434 104.74 81.6534 104.57 84.8834C104.41 88.1234 104.4 90.7534 104.03 95.8634C103.65 100.973 103.2 104.373 102.68 110.433C102.16 116.493 101.72 120.093 101.41 126.153C101.1 132.203 100.87 135.553 101.12 140.723C101.36 145.893 101.25 148.573 102.62 151.983C104 155.393 105.38 156.813 107.98 157.793C110.59 158.783 112.77 158.783 115.66 156.903C118.55 155.023 119.75 152.673 122.43 148.413C125.1 144.153 126.52 141.123 129.02 135.593C131.52 130.063 132.69 126.493 134.93 120.763C137.18 115.033 138.41 111.803 140.26 106.943C142.1 102.093 143.47 99.6434 144.16 96.4934C144.84 93.3434 144.41 91.9834 143.69 91.1834C142.97 90.3934 141.5 90.6534 140.54 92.5234C139.59 94.3934 139.32 96.3934 138.93 100.533C138.54 104.673 138.52 107.913 138.61 113.213C138.71 118.513 138.85 121.943 139.41 127.013C139.98 132.083 140.23 134.663 141.44 138.573C142.65 142.483 143.22 144.433 145.46 146.573C147.71 148.723 149.74 149.533 152.68 149.293C155.62 149.043 157.42 147.923 160.16 145.353C162.9 142.783 163.97 140.493 166.36 136.443C168.76 132.393 170.04 129.623 172.14 125.103C174.25 120.593 175.48 117.653 176.87 113.853C178.26 110.053 179 108.033 179.1 106.083C179.21 104.143 178.18 103.593 177.4 104.153C176.61 104.713 175.53 105.953 175.17 108.883C174.81 111.813 175.21 114.353 175.61 118.803C176.02 123.263 176.36 126.323 177.19 131.153C178.03 135.983 178.47 138.813 179.78 142.953C181.08 147.083 181.6 149.263 183.74 151.823C185.88 154.373 187.57 155.143 190.47 155.733C193.38 156.313 195.36 156.343 198.26 154.763C201.16 153.183 202.48 151.203 204.97 147.833C207.46 144.453 208.57 142.083 210.71 137.883C212.85 133.683 213.82 130.913 215.67 126.813C217.51 122.703 218.87 120.233 219.95 117.353C221.02 114.473 221 113.263 221.04 112.403C221.09 111.553 220.51 111.823 220.19 113.063C219.86 114.313 219.3 115.683 219.41 118.653C219.52 121.613 220.11 124.143 220.75 127.893C221.38 131.643 221.51 134.333 222.59 137.413C223.67 140.483 224.52 141.983 226.14 143.273C227.76 144.553 229.09 144.763 230.69 143.853C232.29 142.943 233.54 141.563 234.14 138.723C234.74 135.883 233.94 133.543 233.7 129.653C233.47 125.773 233.14 123.193 232.95 119.293C232.76 115.403 232.89 112.963 232.77 110.183C232.65 107.393 232.28 106.523 232.34 105.383C232.4 104.243 232.41 104.323 233.07 104.473C233.73 104.633 234.02 105.313 235.63 106.153C237.24 106.993 238.39 107.933 241.1 108.663C243.8 109.393 245.74 109.503 249.14 109.803C252.55 110.103 254.49 110.163 258.1 110.153C261.71 110.143 263.72 110.093 267.21 109.753C270.71 109.413 272.58 109.183 275.58 108.453C278.58 107.723 280.27 107.293 282.21 106.113C284.16 104.933 285.02 103.603 285.32 102.533C285.62 101.453 284.77 100.463 283.69 100.743C282.61 101.013 281.16 101.523 279.9 103.893C278.64 106.263 278.43 108.473 277.41 112.603C276.39 116.733 275.55 119.673 274.8 124.533C274.06 129.403 273.67 132.373 273.69 136.943C273.71 141.513 273.71 143.863 274.9 147.383C276.08 150.903 277.13 152.863 279.62 154.553C282.11 156.253 284.32 156.683 287.34 155.853C290.37 155.033 291.89 153.553 294.75 150.443C297.61 147.323 298.87 145.023 301.64 140.283C304.41 135.543 305.91 132.253 308.61 126.723C311.31 121.183 312.9 117.363 315.16 112.613C317.43 107.863 319.09 105.493 319.94 102.963C320.78 100.443 319.92 99.6234 319.38 99.9834C318.84 100.353 317.86 101.703 317.23 104.793C316.6 107.873 316.57 110.953 316.23 115.413C315.89 119.873 315.4 122.983 315.53 127.073C315.67 131.163 315.65 133.413 316.9 135.853C318.14 138.303 319.48 139.103 321.75 139.293C324.03 139.483 325.77 138.953 328.27 136.803C330.77 134.653 331.75 132.153 334.26 128.543C336.77 124.933 338.37 122.163 340.81 118.743C343.25 115.323 344.9 113.563 346.47 111.453C348.03 109.343 348.16 108.383 348.65 108.193C349.14 108.003 348.75 108.683 348.9 110.503C349.04 112.323 348.9 114.123 349.37 117.293C349.85 120.473 350.11 122.943 351.27 126.383C352.44 129.833 353.12 132.013 355.21 134.513C357.3 137.013 358.86 138.093 361.73 138.903C364.59 139.703 366.49 139.753 369.54 138.543C372.59 137.323 374.12 135.713 376.98 132.823C379.85 129.923 381.19 127.893 383.88 124.073C386.57 120.253 388.01 117.583 390.46 113.703C392.9 109.823 394.7 107.683 396.1 104.683C397.49 101.673 397.71 99.9934 397.42 98.6734C397.14 97.3434 395.89 97.0534 394.67 98.0634C393.45 99.0834 392.36 100.523 391.32 103.743C390.27 106.953 389.94 109.763 389.47 114.133C389 118.503 388.76 121.353 388.95 125.593C389.14 129.843 388.98 132.393 390.42 135.373C391.86 138.343 393.46 139.653 396.15 140.473C398.84 141.283 401.11 141.313 403.87 139.443C406.63 137.573 407.82 135.473 409.93 131.123C412.04 126.773 412.89 123.833 414.42 117.693C415.95 111.563 416.69 107.613 417.57 100.443C418.44 93.2734 418.6 89.1434 418.79 81.8634C418.97 74.5934 419.04 70.2934 418.5 64.0634C417.95 57.8234 417.47 55.0334 416.07 50.6834C414.68 46.3434 413.86 44.4334 411.53 42.3434C409.21 40.2634 407.26 39.9234 404.46 40.2634C401.66 40.6034 399.71 41.4634 397.54 44.0334C395.36 46.6134 394.64 48.8734 393.6 53.1334C392.56 57.4034 392.43 60.1534 392.33 65.3634C392.23 70.5634 392.41 73.5534 393.11 79.1734C393.81 84.7834 394.3 87.9534 395.84 93.4334C397.38 98.9134 398.47 101.723 400.81 106.573C403.15 111.413 404.53 113.833 407.54 117.633C410.56 121.443 412.31 123.233 415.88 125.573C419.45 127.913 421.5 128.693 425.39 129.333C429.28 129.963 431.55 129.903 435.33 128.753C439.1 127.603 441.14 126.293 444.27 123.563C447.39 120.833 448.73 118.763 450.95 115.103C453.16 111.453 454.13 109.183 455.35 105.293C456.57 101.413 457.34 99.0534 457.05 95.6834C456.76 92.3234 455.8 90.3934 453.89 88.4634C451.99 86.5334 450.2 85.8134 447.51 86.0334C444.82 86.2534 442.7 86.9934 440.43 89.5534C438.15 92.1234 437.41 94.5434 436.13 98.8734C434.85 103.203 434.37 106.083 434.05 111.213C433.72 116.333 433.69 119.463 434.51 124.483C435.33 129.513 436 132.223 438.14 136.353C440.27 140.493 441.84 142.793 445.19 145.173C448.55 147.543 450.89 148.293 454.91 148.233C458.92 148.173 461.26 147.123 465.26 144.873C469.26 142.623 471.32 140.723 474.91 136.993C478.5 133.253 480.45 130.293 483.2 126.193C485.94 122.093 487.22 119.533 488.64 116.503C490.06 113.463 490.33 112.333 490.31 111.013C490.28 109.703 489.72 109.323 488.51 109.913C487.31 110.493 486.2 111.273 484.29 113.963C482.37 116.663 481.51 119.433 478.94 123.373C476.36 127.313 474.63 130.223 471.41 133.673C468.19 137.123 466.17 138.703 462.84 140.613C459.52 142.513 457.74 143.083 454.79 143.193C451.83 143.293 450.56 142.943 448.07 141.143C445.59 139.343 444.15 137.653 442.36 134.183C440.58 130.703 439.81 128.273 439.17 123.773C438.52 119.263 438.61 116.253 439.14 111.653C439.66 107.053 440.43 104.313 441.79 100.773C443.16 97.2234 444.61 95.9134 445.94 93.9334C447.28 91.9434 447.67 91.3134 448.47 90.8334C449.27 90.3434 449.57 90.4934 449.94 91.5234C450.32 92.5434 450.42 93.5334 450.36 95.9534C450.3 98.3834 450.49 100.383 449.64 103.643C448.8 106.903 447.94 109.093 446.12 112.253C444.31 115.403 443.07 117.153 440.58 119.413C438.09 121.673 436.56 122.583 433.68 123.543C430.79 124.503 429.2 124.603 426.16 124.203C423.11 123.803 421.48 123.413 418.43 121.553C415.38 119.693 413.7 118.263 410.91 114.903C408.11 111.553 406.69 109.293 404.44 104.783C402.2 100.283 401.11 97.5834 399.68 92.3634C398.25 87.1534 397.81 84.0634 397.31 78.7034C396.81 73.3534 396.79 70.3934 397.16 65.5934C397.54 60.7834 398.06 58.2134 399.18 54.6834C400.3 51.1534 401.55 49.9334 402.78 47.9234C404 45.9134 404.24 45.0634 405.33 44.6334C406.42 44.2034 406.87 44.2834 408.23 45.7634C409.59 47.2434 410.78 48.3034 412.14 52.0234C413.5 55.7534 414.35 58.4534 415.03 64.4134C415.7 70.3634 415.7 74.6634 415.53 81.7834C415.36 88.9034 415.17 93.0234 414.16 99.9934C413.15 106.953 412.23 110.863 410.48 116.603C408.72 122.353 407.45 125.123 405.38 128.733C403.31 132.343 401.7 133.133 400.12 134.663C398.53 136.203 398.21 136.703 397.45 136.413C396.7 136.123 396.77 135.393 396.32 133.213C395.87 131.023 395.17 129.083 395.2 125.463C395.22 121.843 395.73 119.133 396.44 115.113C397.16 111.093 398.37 108.663 398.76 105.373C399.15 102.093 399.15 100.383 398.39 98.7034C397.63 97.0134 396.56 96.3934 394.96 96.9434C393.36 97.5034 392.23 98.7034 390.38 101.493C388.54 104.273 387.94 107.013 385.74 110.883C383.55 114.743 382.01 117.323 379.4 120.833C376.79 124.333 375.23 126.063 372.7 128.403C370.17 130.743 368.64 131.453 366.75 132.533C364.86 133.613 364.4 134.193 363.25 133.793C362.1 133.403 361.93 132.503 361 130.563C360.07 128.633 359.39 127.113 358.59 124.143C357.78 121.163 357.85 118.893 356.97 115.693C356.1 112.483 355.87 110.353 354.22 108.133C352.57 105.913 351.17 104.833 348.71 104.603C346.25 104.363 344.5 104.843 341.9 106.943C339.31 109.043 338.34 111.533 335.75 115.093C333.15 118.653 331.44 121.323 328.93 124.743C326.42 128.173 324.71 129.943 323.21 132.233C321.71 134.523 321.66 135.733 321.41 136.203C321.17 136.663 321.84 136.373 322 134.553C322.15 132.743 322.03 130.853 322.21 127.113C322.39 123.373 322.65 120.283 322.9 115.853C323.15 111.423 323.9 108.363 323.45 104.963C323.01 101.573 322.29 99.8234 320.68 98.9034C319.07 97.9834 317.36 98.0234 315.42 100.383C313.47 102.743 313.08 105.803 310.96 110.693C308.83 115.583 307.44 119.413 304.77 124.843C302.11 130.263 300.45 133.453 297.63 137.823C294.81 142.183 293.09 144.083 290.67 146.653C288.25 149.223 287.14 149.863 285.53 150.663C283.92 151.453 283.64 151.613 282.61 150.623C281.57 149.633 281.07 148.463 280.35 145.723C279.63 142.983 279 140.953 278.99 136.923C278.98 132.883 279.28 130.013 280.28 125.563C281.27 121.113 282.5 118.433 283.97 114.673C285.44 110.923 287 109.433 287.62 106.783C288.25 104.123 287.82 102.943 287.09 101.393C286.36 99.8434 285.49 99.3934 283.96 99.0234C282.44 98.6534 281.51 99.0534 279.47 99.5334C277.43 100.013 276.36 100.703 273.76 101.423C271.16 102.153 269.57 102.753 266.47 103.163C263.37 103.563 261.49 103.603 258.24 103.443C255 103.293 253.26 103.043 250.26 102.383C247.26 101.713 245.88 100.753 243.24 100.143C240.59 99.5234 239.3 99.2734 237.03 99.3134C234.77 99.3634 233.74 99.5134 231.92 100.353C230.1 101.203 229.16 101.613 227.94 103.523C226.71 105.443 226.12 106.723 225.78 109.923C225.44 113.123 226.15 115.533 226.24 119.533C226.33 123.523 226.23 126.083 226.22 129.873C226.21 133.673 225.75 135.923 226.19 138.483C226.62 141.033 227.61 142.043 228.41 142.633C229.21 143.233 229.77 142.853 230.17 141.443C230.58 140.033 230.75 138.563 230.42 135.583C230.09 132.613 229.15 130.223 228.53 126.573C227.9 122.913 228.19 120.383 227.28 117.313C226.37 114.253 225.62 112.743 223.98 111.253C222.33 109.753 221.02 109.163 219.07 109.843C217.12 110.523 215.93 111.693 214.24 114.653C212.55 117.613 212.3 120.513 210.62 124.653C208.94 128.793 207.95 131.443 205.85 135.343C203.76 139.243 202.34 141.363 200.14 144.153C197.94 146.953 196.58 147.973 194.83 149.323C193.09 150.673 192.68 151.133 191.4 150.913C190.12 150.693 189.73 150.143 188.43 148.223C187.14 146.303 186.09 144.883 184.93 141.303C183.77 137.723 183.22 134.903 182.64 130.333C182.06 125.763 182.12 122.783 182.03 118.443C181.94 114.113 182.74 111.683 182.18 108.653C181.63 105.613 180.71 104.193 179.24 103.293C177.77 102.383 176.38 102.423 174.82 104.123C173.25 105.813 172.91 108.013 171.41 111.773C169.92 115.533 169.32 118.563 167.35 122.913C165.39 127.253 163.92 129.883 161.6 133.513C159.28 137.143 157.7 138.863 155.77 141.053C153.84 143.253 153.25 144.103 151.95 144.503C150.64 144.903 150.36 144.553 149.25 143.073C148.14 141.583 147.38 140.373 146.39 137.063C145.4 133.753 144.75 131.273 144.31 126.513C143.86 121.753 143.95 118.363 144.15 113.263C144.34 108.173 145.05 105.073 145.29 101.013C145.53 96.9534 145.93 95.0534 145.34 92.9634C144.75 90.8734 143.61 90.1834 142.34 90.5634C141.08 90.9534 140.24 91.8934 139.01 94.8934C137.79 97.8834 137.75 100.643 136.19 105.523C134.64 110.413 133.45 113.673 131.23 119.313C129.01 124.953 127.7 128.473 125.09 133.733C122.48 138.993 120.75 141.883 118.17 145.623C115.6 149.363 113.96 150.723 112.2 152.433C110.45 154.153 110.37 154.633 109.4 154.203C108.42 153.783 108.15 153.063 107.34 150.313C106.53 147.563 105.76 145.243 105.36 140.453C104.96 135.653 105.03 132.263 105.33 126.353C105.63 120.433 106.11 116.853 106.86 110.873C107.6 104.883 108.28 101.603 109.04 96.4234C109.8 91.2434 110.73 88.7534 110.66 84.9734C110.59 81.1934 110.23 79.6134 108.71 77.5334C107.18 75.4634 105.68 74.8034 103.02 74.5934C100.36 74.3834 98.5902 75.1134 95.4002 76.4734C92.2102 77.8434 90.5102 79.6534 87.0502 81.4034C83.5902 83.1634 81.6002 84.1234 78.1002 85.2434C74.5902 86.3534 72.4902 86.4334 69.5302 86.9834C66.5702 87.5334 65.1502 87.6434 63.3002 87.9834C61.4502 88.3234 60.9002 88.5534 60.2702 88.6534C59.6502 88.7634 59.7002 88.8434 60.1902 88.5034C60.6702 88.1634 61.3602 87.7934 62.7002 86.9634C64.0402 86.1334 64.9702 85.3134 66.9002 84.3734C68.8202 83.4434 70.1302 82.8034 72.3202 82.3034C74.5102 81.8034 75.7802 81.4834 77.8502 81.8734C79.9102 82.2634 80.9702 82.5034 82.6502 84.2534C84.3302 86.0034 85.3702 87.1434 86.2602 90.6134C87.1402 94.0834 87.4502 96.5834 87.0602 101.623C86.6802 106.663 86.1602 109.873 84.3402 115.803C82.5202 121.723 81.1702 125.373 77.9702 131.233C74.7702 137.093 72.6702 140.163 68.3302 145.093C63.9902 150.023 61.2302 152.503 56.2702 155.863C51.3102 159.223 48.5002 160.663 43.5502 161.893C38.6002 163.133 36.0502 163.093 31.5302 162.043C27.0102 160.993 24.7502 159.923 20.9602 156.643C17.1702 153.363 15.3102 151.113 12.5702 145.623C9.84021 140.143 8.7002 136.573 7.3002 129.233C5.8902 121.883 5.5802 117.393 5.5502 108.903C5.5302 100.423 5.8902 95.4834 7.1602 86.8134C8.4302 78.1334 9.50021 73.3934 11.9002 65.5234C14.2902 57.6634 15.9702 53.8134 19.1402 47.5034C22.3002 41.1934 24.2402 38.4534 27.7202 33.9834C31.2002 29.5234 33.0902 27.8234 36.5402 25.1734C39.9902 22.5134 41.8802 21.7234 44.9602 20.7234C48.0502 19.7134 49.5802 20.3534 51.9702 20.1434C54.3502 19.9434 55.2102 19.8934 56.9002 19.6934C58.5802 19.5034 59.4802 19.8434 60.3902 19.1534C61.3102 18.4634 61.9402 17.4334 61.4702 16.2334Z" fill="#FAB005" stroke="#FAB005"/>
<path d="M487.97 126.403C486.91 127.563 486.47 129.393 486.05 132.053C485.63 134.703 485.27 136.743 485.87 139.663C486.46 142.583 487.24 144.893 489.02 146.653C490.8 148.413 492.56 148.893 494.77 148.473C496.98 148.043 498.42 147.153 500.09 144.553C501.75 141.953 501.9 139.533 503.09 135.463C504.29 131.383 504.82 128.573 506.07 124.153C507.32 119.733 508.02 117.093 509.33 113.363C510.64 109.643 511.66 107.883 512.64 105.523C513.63 103.173 513.56 102.303 514.24 101.593C514.93 100.883 515.04 101.243 516.08 101.983C517.12 102.713 517.57 103.783 519.44 105.253C521.32 106.723 522.66 107.723 525.46 109.323C528.27 110.923 530.07 111.983 533.46 113.243C536.86 114.493 538.75 115.043 542.43 115.593C546.11 116.143 548.1 116.213 551.86 115.993C555.63 115.773 557.68 115.383 561.25 114.493C564.83 113.603 566.89 112.813 569.72 111.533C572.55 110.263 573.68 109.363 575.39 108.093C577.11 106.833 577.6 106.153 578.3 105.203C579.01 104.263 578.99 103.993 578.9 103.373C578.81 102.763 578.25 102.343 577.85 102.133C577.45 101.913 576.59 102.093 576.89 102.293C577.19 102.493 579 103.113 579.36 103.133C579.73 103.143 579.07 102.723 578.71 102.373C578.35 102.013 578.16 101.623 577.55 101.363C576.93 101.103 576.72 100.853 575.62 101.073C574.53 101.283 573.87 101.663 572.09 102.443C570.31 103.223 569.22 103.793 566.7 104.973C564.19 106.153 562.55 107.343 559.51 108.333C556.46 109.323 554.69 109.693 551.48 109.913C548.28 110.133 546.54 110.013 543.47 109.413C540.4 108.823 538.91 108.303 536.13 106.943C533.35 105.593 532.09 104.293 529.57 102.623C527.05 100.953 525.94 99.7628 523.51 98.6028C521.08 97.4428 519.77 96.9728 517.42 96.8228C515.06 96.6828 513.82 96.6928 511.72 97.8628C509.63 99.0428 508.49 99.9528 506.94 102.693C505.4 105.443 505.26 107.613 503.99 111.573C502.73 115.533 502.05 118.133 500.62 122.493C499.19 126.843 498.3 129.573 496.84 133.353C495.39 137.123 494.08 138.943 493.36 141.353C492.64 143.773 493.01 144.873 493.25 145.443C493.49 146.013 494.16 145.633 494.54 144.223C494.92 142.803 495.32 140.913 495.15 138.373C494.99 135.833 494.48 133.953 493.71 131.533C492.95 129.103 492.48 127.283 491.33 126.263C490.18 125.233 489.02 125.243 487.97 126.403Z" fill="#FAB005" stroke="#FAB005"/>
<path d="M725.291 35.3732C725.611 34.2632 725.581 33.2432 724.531 31.6332C723.491 30.0232 722.641 28.6332 720.071 27.3232C717.501 26.0132 715.561 25.4832 711.691 25.0832C707.831 24.6932 705.441 24.5832 700.751 25.3332C696.061 26.0832 693.271 26.8732 688.241 28.8332C683.201 30.7932 680.271 32.1132 675.561 35.1432C670.851 38.1832 668.251 40.0732 664.701 44.0132C661.141 47.9532 659.401 50.3132 657.801 54.8532C656.201 59.4032 655.821 62.0732 656.681 66.7432C657.551 71.4132 658.871 73.9432 662.101 78.2032C665.341 82.4532 667.821 84.4332 672.841 88.0232C677.851 91.6032 681.091 93.1332 687.181 96.1232C693.271 99.1132 696.971 100.423 703.291 102.973C709.611 105.513 713.251 106.603 718.761 108.833C724.271 111.073 727.131 112.093 730.821 114.133C734.511 116.183 735.751 117.323 737.221 119.043C738.691 120.773 738.881 120.903 738.151 122.763C737.421 124.623 736.681 125.773 733.581 128.363C730.471 130.953 727.771 132.673 722.631 135.713C717.481 138.743 713.861 140.623 707.841 143.533C701.821 146.443 698.061 148.043 692.531 150.253C687.001 152.453 683.941 153.283 680.191 154.543C676.431 155.803 674.981 156.113 673.761 156.563C672.541 157.003 673.071 157.563 674.081 156.773C675.091 155.973 676.221 155.053 678.831 152.573C681.451 150.093 683.081 147.883 687.141 144.363C691.211 140.853 693.961 138.703 699.171 134.993C704.381 131.293 707.591 129.213 713.181 125.833C718.771 122.453 721.951 120.673 727.121 118.093C732.301 115.523 735.041 114.323 739.051 112.973C743.071 111.613 744.861 111.493 747.211 111.333C749.561 111.173 750.021 111.133 750.801 112.163C751.581 113.203 751.111 114.103 751.131 116.513C751.161 118.913 751.251 120.633 750.921 124.203C750.591 127.783 750.011 130.373 749.481 134.383C748.951 138.383 747.881 140.993 748.271 144.223C748.661 147.443 749.671 149.303 751.431 150.503C753.181 151.703 754.861 151.773 757.061 150.223C759.271 148.673 760.181 146.633 762.441 142.743C764.701 138.853 765.821 135.683 768.351 130.783C770.881 125.883 772.541 122.443 775.081 118.243C777.631 114.043 779.481 112.033 781.081 109.773C782.671 107.503 782.671 106.753 783.041 106.913C783.411 107.063 782.801 108.033 782.921 110.533C783.031 113.023 783.411 115.303 783.601 119.383C783.781 123.453 783.711 126.543 783.861 130.903C784.001 135.273 783.571 137.873 784.331 141.203C785.081 144.533 785.881 146.123 787.621 147.543C789.371 148.963 790.841 149.223 793.051 148.303C795.261 147.373 796.451 145.963 798.681 142.943C800.911 139.913 801.941 137.263 804.191 133.183C806.451 129.103 807.751 126.303 809.961 122.543C812.181 118.793 813.821 116.883 815.271 114.393C816.721 111.903 816.941 110.823 817.211 110.083C817.481 109.353 817.041 109.543 816.611 110.703C816.181 111.873 815.331 113.153 815.061 115.903C814.791 118.663 815.121 120.913 815.251 124.453C815.381 127.993 815.211 130.243 815.711 133.603C816.201 136.973 816.341 138.793 817.731 141.273C819.131 143.753 820.271 145.053 822.691 145.993C825.111 146.923 826.991 147.023 829.831 145.933C832.681 144.853 834.061 143.353 836.911 140.563C839.761 137.763 841.231 135.663 844.101 131.953C846.971 128.243 848.641 125.763 851.271 122.023C853.901 118.273 855.861 116.153 857.241 113.213C858.631 110.263 858.661 108.573 858.191 107.273C857.721 105.973 856.401 105.683 854.891 106.713C853.381 107.753 852.051 109.333 850.641 112.453C849.241 115.573 848.561 118.363 847.871 122.303C847.181 126.243 846.531 128.853 847.191 132.143C847.851 135.433 848.951 137.163 851.171 138.773C853.401 140.383 855.311 140.983 858.321 140.193C861.331 139.413 863.171 137.803 866.221 134.833C869.271 131.863 870.901 129.383 873.561 125.343C876.221 121.303 877.631 118.653 879.511 114.623C881.391 110.593 882.561 108.453 882.941 105.183C883.331 101.923 882.821 100.123 881.441 98.2932C880.071 96.4632 878.501 95.8332 876.091 96.0332C873.681 96.2332 871.581 96.9032 869.401 99.2932C867.231 101.683 866.441 104.063 865.211 107.983C863.991 111.903 863.631 114.303 863.301 118.893C862.961 123.483 862.891 126.043 863.551 130.923C864.221 135.803 864.881 138.543 866.611 143.313C868.341 148.083 869.681 150.493 872.221 154.763C874.761 159.043 876.301 161.073 879.291 164.683C882.291 168.303 884.041 170.013 887.191 172.843C890.351 175.673 892.101 176.873 895.061 178.853C898.031 180.823 899.641 181.753 902.021 182.703C904.411 183.653 905.671 183.743 907.001 183.623C908.341 183.493 908.851 182.773 908.701 182.073C908.541 181.383 908.051 180.313 906.221 180.133C904.381 179.953 902.781 180.273 899.531 181.163C896.281 182.063 894.151 183.153 889.961 184.623C885.771 186.093 883.151 186.893 878.581 188.523C874.001 190.163 871.361 191.163 867.071 192.813C862.781 194.463 860.631 195.333 857.121 196.793C853.601 198.243 851.571 198.643 849.501 200.083C847.441 201.533 846.801 202.893 846.771 204.023C846.741 205.143 847.701 206.173 849.341 205.713C850.971 205.263 852.141 204.453 854.951 201.743C857.751 199.023 859.341 196.763 863.361 192.163C867.381 187.553 870.011 184.943 875.041 178.723C880.081 172.513 882.991 168.843 888.531 161.093C894.071 153.353 897.131 148.963 902.731 140.013C908.331 131.063 911.351 126.143 916.531 116.343C921.701 106.543 924.201 101.083 928.611 91.0232C933.011 80.9532 935.291 75.5532 938.571 66.0132C941.851 56.4732 943.111 51.5432 945.011 43.3132C946.901 35.0832 947.391 31.2232 948.031 24.8832C948.661 18.5332 948.871 15.7132 948.181 11.5932C947.481 7.46316 946.721 5.75318 944.541 4.26318C942.361 2.76318 940.031 2.45317 937.291 4.13317C934.551 5.80317 933.181 7.95317 930.851 12.6332C928.511 17.3132 927.471 20.4932 925.631 27.5232C923.791 34.5432 922.861 39.0132 921.631 47.7732C920.411 56.5232 919.881 61.8532 919.501 71.2932C919.121 80.7232 919.181 86.1732 919.711 94.9432C920.251 103.703 920.851 108.133 922.191 115.133C923.521 122.133 924.411 125.163 926.371 129.933C928.321 134.703 929.211 136.613 931.951 138.973C934.681 141.333 936.751 142.083 940.041 141.743C943.331 141.403 945.261 139.923 948.411 137.253C951.571 134.583 953.061 132.043 955.811 128.393C958.551 124.753 960.251 122.193 962.151 119.023C964.041 115.853 964.751 113.933 965.271 112.533C965.791 111.133 964.811 110.873 964.751 112.013C964.681 113.143 964.291 114.883 964.941 118.203C965.591 121.513 966.301 124.313 968.001 128.593C969.711 132.873 970.661 135.803 973.461 139.593C976.271 143.373 978.441 145.103 982.031 147.513C985.621 149.923 988.051 150.933 991.411 151.633C994.761 152.343 997.271 151.713 998.801 151.023C1000.32 150.343 1000.23 149.133 999.051 148.203C997.861 147.283 995.691 147.423 992.881 146.393C990.061 145.373 987.991 145.053 984.981 143.073C981.971 141.093 980.051 139.813 977.831 136.503C975.601 133.183 975.151 130.503 973.861 126.483C972.581 122.463 972.611 119.713 971.401 116.393C970.201 113.073 969.671 111.313 967.841 109.883C966.011 108.453 964.481 108.133 962.261 109.253C960.031 110.373 958.981 112.333 956.741 115.473C954.491 118.613 953.461 121.433 951.041 124.953C948.611 128.483 946.971 130.723 944.611 133.103C942.251 135.493 941.211 136.363 939.251 136.873C937.291 137.383 936.751 137.313 934.821 135.653C932.881 133.983 931.531 132.763 929.561 128.543C927.591 124.323 926.431 121.313 924.971 114.563C923.511 107.813 922.841 103.403 922.251 94.7732C921.671 86.1432 921.601 80.7132 922.041 71.4032C922.471 62.0832 923.031 56.7732 924.431 48.1932C925.831 39.6132 926.951 35.1832 929.041 28.5032C931.141 21.8132 932.641 18.8332 934.901 14.7632C937.171 10.6932 938.831 9.72318 940.351 8.14318C941.871 6.57318 941.711 6.08318 942.501 6.89318C943.281 7.70318 943.781 8.65318 944.291 12.2032C944.811 15.7632 945.411 18.5332 945.081 24.6532C944.761 30.7732 944.381 34.6632 942.681 42.8032C940.981 50.9332 939.751 55.8532 936.571 65.3332C933.391 74.8232 931.141 80.2132 926.781 90.2232C922.411 100.233 919.921 105.663 914.751 115.393C909.571 125.123 906.541 130.013 900.901 138.853C895.251 147.703 892.161 152.053 886.521 159.633C880.881 167.203 877.941 170.823 872.691 176.723C867.431 182.633 864.641 185.033 860.241 189.153C855.841 193.263 853.491 194.643 850.691 197.313C847.901 199.983 846.911 200.773 846.261 202.493C845.611 204.213 846.231 205.263 847.461 205.923C848.691 206.583 850.021 206.633 852.411 205.813C854.811 205.003 856.141 203.513 859.441 201.833C862.731 200.143 864.751 199.103 868.891 197.413C873.041 195.713 875.641 194.733 880.181 193.343C884.721 191.943 887.321 191.323 891.581 190.423C895.851 189.523 898.191 189.623 901.491 188.843C904.791 188.063 906.341 187.743 908.071 186.523C909.811 185.313 909.981 184.193 910.171 182.753C910.351 181.313 910.071 180.563 909.001 179.323C907.921 178.083 906.981 177.643 904.791 176.543C902.601 175.443 900.921 175.343 898.051 173.833C895.181 172.333 893.481 171.443 890.431 169.023C887.381 166.593 885.681 165.013 882.801 161.713C879.921 158.403 878.431 156.473 876.041 152.493C873.651 148.503 872.391 146.223 870.841 141.803C869.291 137.383 868.711 134.833 868.281 130.373C867.851 125.913 868.051 123.513 868.691 119.503C869.331 115.493 870.111 113.403 871.501 110.323C872.891 107.233 874.411 106.103 875.631 104.093C876.851 102.073 877.131 101.083 877.611 100.243C878.091 99.3932 878.221 99.1132 878.031 99.8632C877.851 100.613 877.431 101.483 876.691 103.973C875.961 106.463 875.951 108.673 874.371 112.303C872.791 115.943 871.321 118.523 868.811 122.133C866.301 125.743 864.371 127.843 861.831 130.353C859.291 132.863 857.701 133.633 856.121 134.673C854.531 135.723 854.231 136.153 853.911 135.583C853.591 135.013 854.131 134.143 854.541 131.813C854.951 129.483 855.171 127.313 855.961 123.943C856.741 120.563 857.901 118.083 858.471 114.923C859.051 111.763 859.321 109.933 858.831 108.143C858.351 106.353 857.481 105.643 856.031 105.993C854.581 106.333 853.451 107.283 851.571 109.863C849.691 112.443 849.011 115.193 846.631 118.903C844.251 122.613 842.521 125.013 839.681 128.403C836.851 131.793 835.021 133.533 832.461 135.853C829.891 138.173 828.501 138.853 826.861 140.013C825.221 141.173 824.931 141.863 824.261 141.673C823.591 141.473 823.731 140.803 823.511 139.053C823.281 137.313 823.211 135.883 823.141 132.943C823.081 130.003 823.151 127.823 823.191 124.353C823.241 120.883 823.851 118.623 823.361 115.593C822.871 112.553 822.231 110.893 820.731 109.173C819.231 107.453 817.991 106.693 815.861 106.993C813.741 107.303 812.301 108.153 810.131 110.693C807.961 113.223 807.261 115.773 805.011 119.653C802.771 123.533 801.291 126.183 798.901 130.093C796.501 134.003 794.761 136.243 793.031 139.193C791.301 142.143 790.751 143.573 790.251 144.833C789.761 146.093 790.431 146.403 790.551 145.503C790.671 144.603 790.971 143.283 790.871 140.323C790.781 137.353 790.261 134.923 790.081 130.673C789.901 126.423 790.181 123.393 789.961 119.073C789.741 114.743 790.201 112.053 788.971 109.053C787.741 106.043 786.181 104.633 783.811 104.043C781.431 103.463 779.701 103.813 777.101 106.133C774.501 108.453 773.471 111.213 770.791 115.653C768.121 120.093 766.431 123.483 763.741 128.313C761.061 133.143 759.491 136.123 757.371 139.813C755.241 143.493 753.881 144.933 753.121 146.743C752.351 148.553 753.091 149.333 753.551 148.853C754.001 148.383 754.901 147.083 755.401 144.343C755.891 141.603 755.611 139.073 756.031 135.163C756.441 131.243 757.121 128.683 757.461 124.793C757.791 120.893 758.391 118.843 757.711 115.673C757.041 112.513 756.191 110.863 754.061 108.943C751.931 107.033 750.361 106.103 747.061 106.103C743.761 106.103 741.891 107.203 737.561 108.943C733.241 110.683 730.681 112.043 725.441 114.803C720.201 117.573 717.041 119.393 711.351 122.783C705.661 126.183 702.431 128.233 696.981 131.793C691.531 135.353 688.581 137.243 684.111 140.583C679.631 143.913 677.301 145.503 674.611 148.463C671.931 151.433 670.891 153.113 670.661 155.403C670.441 157.703 671.321 159.233 673.511 159.933C675.691 160.643 677.481 160.153 681.581 158.923C685.671 157.703 688.421 156.203 694.001 153.803C699.581 151.403 703.331 149.833 709.471 146.943C715.611 144.063 719.271 142.353 724.711 139.373C730.151 136.403 733.051 135.093 736.671 132.063C740.291 129.033 741.931 127.443 742.811 124.243C743.691 121.043 743.081 118.833 741.071 116.063C739.061 113.303 736.971 112.553 732.771 110.433C728.571 108.313 725.721 107.603 720.071 105.483C714.421 103.363 710.811 102.323 704.541 99.8332C698.271 97.3432 694.611 96.0032 688.711 93.0332C682.811 90.0732 679.711 88.4532 675.031 85.0032C670.351 81.5532 668.171 79.5732 665.331 75.7732C662.491 71.9732 661.541 69.8832 660.831 65.9832C660.121 62.0932 660.391 60.1132 661.781 56.2832C663.181 52.4532 664.591 50.3332 667.801 46.8232C671.011 43.3132 673.431 41.4632 677.831 38.7232C682.241 35.9832 685.111 34.7332 689.811 33.1232C694.521 31.5032 697.221 30.8932 701.351 30.6432C705.491 30.3932 707.471 31.0332 710.491 31.8632C713.501 32.6832 714.461 33.8432 716.421 34.7532C718.391 35.6732 718.981 35.9332 720.291 36.4132C721.601 36.8932 721.971 37.3632 722.971 37.1532C723.971 36.9432 724.981 36.4732 725.291 35.3732Z" fill="#FAB005" stroke="#FAB005"/>
</svg>
